<?xml version="1.0" encoding="UTF-8" standalone="no"?><!DOCTYPE svg PUBLIC "-//W3C//DTD SVG 1.1//EN" "http://www.w3.org/Graphics/SVG/1.1/DTD/svg11.dtd"><svg width="100%" height="100%" viewBox="0 0 3508 2481" version="1.1" xmlns="http://www.w3.org/2000/svg" xmlns:xlink="http://www.w3.org/1999/xlink" xml:space="preserve" xmlns:serif="http://www.serif.com/" style="fill-rule:evenodd;clip-rule:evenodd;stroke-linejoin:round;stroke-miterlimit:2;"><rect id="Artboard1" x="0" y="0" width="3507.874" height="2480.315" style="fill:none;"/><clipPath id="_clip1"><rect id="Artboard11" serif:id="Artboard1" x="0" y="0" width="3507.874" height="2480.315"/></clipPath><g clip-path="url(#_clip1)"><rect x="-25.95" y="-28.618" width="3840.517" height="3152.191" style="fill:#5057ff;"/><g><path d="M944.131,1141.206l40.339,0l1.083,51.049c3.648,-10.039 8.402,-18.652 14.26,-25.841c8.157,-10.009 17.708,-17.485 28.654,-22.428c10.946,-4.943 22.372,-7.415 34.276,-7.415c19.831,0 35.875,6.167 48.13,18.501c9.831,9.895 17.101,22.893 21.811,38.994c3.603,-9.712 8.551,-18.265 14.842,-25.661c8.861,-10.416 19.499,-18.325 31.915,-23.729c12.416,-5.404 25.802,-8.106 40.158,-8.106c16.132,0 30.744,3.502 43.836,10.507c13.092,7.005 23.487,17.439 31.184,31.305c7.697,13.865 11.546,31.19 11.546,51.976l0,184.674l-53.876,0l0,-179.175c0,-18.346 -5.096,-31.611 -15.287,-39.793c-10.191,-8.182 -22.224,-12.273 -36.098,-12.273c-11.246,0 -20.966,2.388 -29.16,7.164c-8.194,4.776 -14.5,11.353 -18.921,19.732c-4.42,8.379 -6.63,18.042 -6.63,28.989l0,175.356l-53.08,0l0,-182.788c0,-14.599 -4.694,-26.324 -14.083,-35.176c-9.389,-8.852 -21.354,-13.278 -35.897,-13.278c-9.937,0 -19.196,2.321 -27.776,6.963c-8.58,4.642 -15.449,11.487 -20.606,20.536c-5.157,9.048 -7.736,20.25 -7.736,33.607l0,170.136l-53.872,0l0,-172.839c16.84,-32.349 19.79,-68.297 10.989,-100.989Zm460.849,153.266c0.57,16.427 3.763,30.506 9.58,42.238c6.448,13.007 15.493,22.835 27.133,29.485c11.64,6.65 25.127,9.975 40.461,9.975c10.042,0 19.171,-1.441 27.386,-4.324c8.215,-2.883 15.286,-7.218 21.213,-13.004c5.927,-5.786 10.472,-12.95 13.635,-21.492l50.554,11.932c-4.304,14.185 -11.651,26.643 -22.04,37.372c-10.389,10.73 -23.303,19.092 -38.742,25.088c-15.439,5.996 -32.96,8.993 -52.562,8.993c-26.952,0 -50.197,-5.827 -69.735,-17.48c-19.538,-11.653 -34.572,-28.012 -45.103,-49.075c-10.531,-21.064 -15.796,-45.771 -15.796,-74.121c0,-28.115 5.172,-52.846 15.516,-74.192c10.344,-21.346 24.981,-38.031 43.911,-50.055c18.929,-12.024 41.112,-18.037 66.549,-18.037c15.65,0 30.771,2.555 45.365,7.665c14.594,5.11 27.683,13.146 39.269,24.106c11.586,10.96 20.763,25.162 27.533,42.604c6.77,17.442 10.155,38.509 10.155,63.2l0,19.12l-194.283,0Zm0.175,-40.229l140.593,0c-1.034,-11.378 -3.442,-21.724 -7.226,-31.037c-5.206,-12.815 -12.935,-22.83 -23.186,-30.044c-10.251,-7.214 -22.991,-10.821 -38.22,-10.821c-15.229,0 -28.236,3.674 -39.022,11.022c-10.786,7.348 -19.017,17.027 -24.694,29.039c-4.669,9.879 -7.418,20.493 -8.247,31.84Zm437.47,-60.176c3.603,-9.712 8.551,-18.265 14.842,-25.661c8.861,-10.416 19.499,-18.325 31.915,-23.729c12.416,-5.404 25.802,-8.106 40.158,-8.106c16.132,0 30.744,3.502 43.836,10.507c13.092,7.005 23.487,17.439 31.184,31.305c7.697,13.865 11.546,31.19 11.546,51.976l0,184.674l-53.876,0l0,-179.175c0,-18.346 -5.096,-31.611 -15.287,-39.793c-10.191,-8.182 -22.224,-12.273 -36.098,-12.273c-11.246,0 -20.966,2.388 -29.16,7.164c-8.194,4.776 -14.5,11.353 -18.921,19.732c-4.42,8.379 -6.63,18.042 -6.63,28.989l0,175.356l-53.08,0l0,-182.788c0,-14.599 -4.694,-26.324 -14.083,-35.176c-9.389,-8.852 -21.354,-13.278 -35.897,-13.278c-9.937,0 -19.196,2.321 -27.776,6.963c-8.58,4.642 -15.449,11.487 -20.606,20.536c-5.157,9.048 -7.736,20.25 -7.736,33.607l0,170.136l-53.872,0l0,-273.827l51.327,0l1.083,51.049c3.648,-10.039 8.402,-18.652 14.26,-25.841c8.157,-10.009 17.708,-17.485 28.654,-22.428c10.946,-4.943 22.372,-7.415 34.276,-7.415c19.831,0 35.875,6.167 48.13,18.501c9.831,9.895 17.101,22.893 21.811,38.994Zm366.78,226.404c-16.484,0 -29.982,-2.826 -40.493,-8.477c-10.511,-5.651 -18.742,-12.244 -24.692,-19.778c-5.95,-7.534 -10.534,-14.215 -13.754,-20.042l-4.458,0l0,42.858l-52.491,0l0,-364.94l53.872,0l0,135.704l3.077,0c3.192,-5.692 7.681,-12.29 13.467,-19.793c5.786,-7.503 13.882,-14.084 24.288,-19.741c10.406,-5.658 24.126,-8.486 41.161,-8.486c22.008,0 41.604,5.554 58.788,16.661c17.184,11.107 30.752,27.189 40.704,48.245c9.951,21.056 14.927,46.417 14.927,76.084c0,29.506 -4.899,54.828 -14.696,75.967c-9.797,21.139 -23.295,37.38 -40.493,48.723c-17.198,11.343 -36.934,17.015 -59.207,17.015Zm-11.948,-45.916c15.706,0 28.845,-4.245 39.416,-12.736c10.571,-8.491 18.535,-20.004 23.89,-34.538c5.355,-14.535 8.033,-30.84 8.033,-48.916c0,-17.971 -2.644,-34.091 -7.933,-48.359c-5.289,-14.268 -13.219,-25.555 -23.79,-33.859c-10.571,-8.305 -23.776,-12.457 -39.615,-12.457c-15.407,0 -28.385,3.952 -38.932,11.856c-10.547,7.904 -18.514,18.922 -23.899,33.055c-5.386,14.133 -8.079,30.721 -8.079,49.764c0,18.984 2.726,35.703 8.178,50.156c5.452,14.453 13.486,25.739 24.1,33.857c10.615,8.118 23.492,12.177 38.631,12.177Zm212.552,-80.083c0.57,16.427 3.763,30.506 9.58,42.238c6.448,13.007 15.493,22.835 27.133,29.485c11.64,6.65 25.127,9.975 40.461,9.975c10.042,0 19.171,-1.441 27.386,-4.324c8.215,-2.883 15.286,-7.218 21.213,-13.004c5.927,-5.786 10.472,-12.95 13.635,-21.492l50.554,11.932c-4.304,14.185 -11.651,26.643 -22.04,37.372c-10.389,10.73 -23.303,19.092 -38.742,25.088c-15.439,5.996 -32.96,8.993 -52.562,8.993c-26.952,0 -50.197,-5.827 -69.735,-17.48c-19.538,-11.653 -34.572,-28.012 -45.103,-49.075c-10.531,-21.064 -15.796,-45.771 -15.796,-74.121c0,-28.115 5.172,-52.846 15.516,-74.192c10.344,-21.346 24.981,-38.031 43.911,-50.055c18.929,-12.024 41.112,-18.037 66.549,-18.037c15.65,0 30.771,2.555 45.365,7.665c14.594,5.11 27.683,13.146 39.269,24.106c11.586,10.96 20.763,25.162 27.533,42.604c6.77,17.442 10.155,38.509 10.155,63.2l0,19.12l-194.283,0Zm0.175,-40.229l140.593,0c-1.034,-11.378 -3.442,-21.724 -7.226,-31.037c-5.206,-12.815 -12.935,-22.83 -23.186,-30.044c-10.251,-7.214 -22.991,-10.821 -38.22,-10.821c-15.229,0 -28.236,3.674 -39.022,11.022c-10.786,7.348 -19.017,17.027 -24.694,29.039c-4.669,9.879 -7.418,20.493 -8.247,31.84Zm237.929,160.79l0,-273.827l52.139,0l0,43.98l2.939,0c5.034,-14.879 13.85,-26.567 26.448,-35.065c12.598,-8.497 26.9,-12.746 42.904,-12.746c3.444,0 7.389,0.126 11.835,0.377c4.446,0.251 8.092,0.562 10.939,0.932l0,51.427c-1.952,-0.589 -5.709,-1.218 -11.272,-1.887c-5.563,-0.668 -11.211,-1.003 -16.944,-1.003c-12.445,0 -23.61,2.632 -33.494,7.897c-9.884,5.265 -17.625,12.512 -23.224,21.741c-5.599,9.229 -8.398,19.872 -8.398,31.926l0,166.247l-53.872,0Zm277.266,5.702c-19.865,0 -37.501,-2.875 -52.91,-8.624c-15.409,-5.749 -28.061,-14.211 -37.958,-25.384c-9.897,-11.173 -16.462,-24.803 -19.697,-40.889l50.742,-10.616c3.801,14.257 10.816,24.786 21.043,31.588c10.227,6.802 23.284,10.203 39.171,10.203c17.4,0 31.238,-3.612 41.513,-10.836c10.275,-7.224 15.413,-15.955 15.413,-26.194c0,-8.705 -3.167,-15.914 -9.5,-21.628c-6.334,-5.714 -16.027,-10.018 -29.079,-12.914l-46.084,-10.425c-25.35,-5.733 -44.228,-14.866 -56.633,-27.399c-12.406,-12.533 -18.609,-28.639 -18.609,-48.317c0,-16.293 4.534,-30.55 13.601,-42.772c9.067,-12.222 21.557,-21.736 37.47,-28.542c15.913,-6.806 34.188,-10.208 54.825,-10.208c19.747,0 36.641,2.875 50.682,8.626c14.041,5.751 25.434,13.734 34.179,23.951c8.745,10.217 15.041,22.113 18.888,35.688l-48.342,10.685c-3.462,-9.652 -9.421,-18.132 -17.878,-25.442c-8.456,-7.31 -20.782,-10.964 -36.978,-10.964c-14.918,0 -27.357,3.351 -37.319,10.053c-9.962,6.702 -14.942,15.254 -14.942,25.656c0,9.037 3.329,16.389 9.986,22.057c6.658,5.668 17.472,10.202 32.443,13.603l43.995,9.797c25.378,5.702 44.196,14.696 56.454,26.98c12.258,12.285 18.387,27.947 18.387,46.988c0,16.65 -4.766,31.382 -14.299,44.196c-9.533,12.814 -22.783,22.865 -39.749,30.153c-16.966,7.288 -36.571,10.932 -58.813,10.932Z" style="fill:#fff;"/><g><g><path d="M2881.795,1524.814c-2.753,0 -5.197,-0.409 -7.333,-1.227c-2.136,-0.818 -3.889,-2.022 -5.261,-3.611c-1.372,-1.59 -2.282,-3.529 -2.73,-5.817l7.032,-1.51c0.527,2.028 1.499,3.526 2.916,4.494c1.417,0.968 3.227,1.452 5.429,1.452c2.411,0 4.329,-0.514 5.753,-1.542c1.424,-1.028 2.136,-2.27 2.136,-3.727c0,-1.238 -0.439,-2.264 -1.317,-3.077c-0.878,-0.813 -2.221,-1.425 -4.03,-1.837l-6.387,-1.483c-3.513,-0.816 -6.13,-2.115 -7.849,-3.898c-1.719,-1.783 -2.579,-4.074 -2.579,-6.874c0,-2.318 0.628,-4.346 1.885,-6.085c1.257,-1.739 2.988,-3.092 5.193,-4.061c2.205,-0.968 4.738,-1.452 7.598,-1.452c2.737,0 5.078,0.409 7.024,1.227c1.946,0.818 3.525,1.954 4.737,3.407c1.212,1.454 2.085,3.146 2.618,5.077l-6.7,1.52c-0.48,-1.373 -1.306,-2.58 -2.478,-3.62c-1.172,-1.04 -2.88,-1.56 -5.125,-1.56c-2.067,0 -3.791,0.477 -5.172,1.43c-1.381,0.954 -2.071,2.17 -2.071,3.65c0,1.286 0.461,2.332 1.384,3.138c0.923,0.806 2.421,1.451 4.496,1.935l6.097,1.394c3.517,0.811 6.125,2.091 7.824,3.838c1.699,1.748 2.548,3.976 2.548,6.685c0,2.369 -0.661,4.465 -1.982,6.288c-1.321,1.823 -3.157,3.253 -5.509,4.29c-2.351,1.037 -5.068,1.555 -8.151,1.555Z" style="fill:#fff;fill-rule:nonzero;"/><path d="M2902.138,1524.002l0,-38.957l7.226,0l0,6.257l0.407,0c0.698,-2.117 1.919,-3.78 3.666,-4.989c1.746,-1.209 3.728,-1.813 5.946,-1.813c0.477,0 1.024,0.018 1.64,0.054c0.616,0.036 1.122,0.08 1.516,0.133l0,7.316c-0.27,-0.084 -0.791,-0.173 -1.562,-0.268c-0.771,-0.095 -1.554,-0.143 -2.348,-0.143c-1.725,0 -3.272,0.374 -4.642,1.123c-1.37,0.749 -2.443,1.78 -3.219,3.093c-0.776,1.313 -1.164,2.827 -1.164,4.542l0,23.652l-7.466,0Z" style="fill:#fff;fill-rule:nonzero;"/><path d="M2935.862,1524.858c-2.403,0 -4.575,-0.455 -6.516,-1.365c-1.941,-0.91 -3.479,-2.249 -4.613,-4.017c-1.134,-1.768 -1.701,-3.932 -1.701,-6.491c0,-2.213 0.416,-4.027 1.247,-5.442c0.831,-1.415 1.95,-2.537 3.357,-3.368c1.406,-0.831 2.976,-1.455 4.708,-1.873c1.732,-0.418 3.499,-0.735 5.301,-0.95c2.239,-0.277 4.057,-0.503 5.457,-0.678c1.399,-0.175 2.434,-0.465 3.104,-0.871c0.67,-0.405 1.005,-1.065 1.005,-1.98l0,-0.197c0,-1.454 -0.273,-2.685 -0.818,-3.693c-0.546,-1.008 -1.358,-1.781 -2.437,-2.32c-1.079,-0.539 -2.422,-0.809 -4.028,-0.809c-1.639,0 -3.051,0.261 -4.235,0.783c-1.184,0.522 -2.147,1.187 -2.889,1.993c-0.742,0.806 -1.295,1.652 -1.657,2.537l-7.027,-1.854c0.863,-2.336 2.098,-4.213 3.706,-5.63c1.607,-1.417 3.45,-2.451 5.529,-3.1c2.079,-0.65 4.236,-0.974 6.472,-0.974c1.524,0 3.146,0.187 4.866,0.561c1.72,0.374 3.336,1.047 4.849,2.018c1.513,0.971 2.747,2.343 3.703,4.117c0.956,1.773 1.434,4.069 1.434,6.886l0,25.863l-7.224,0l0,-5.334l-0.383,0c-0.491,1.006 -1.223,1.985 -2.196,2.937c-0.973,0.952 -2.203,1.732 -3.691,2.34c-1.488,0.609 -3.262,0.913 -5.322,0.913Zm1.657,-6.137c2.043,0 3.787,-0.411 5.233,-1.233c1.445,-0.822 2.554,-1.903 3.326,-3.242c0.772,-1.339 1.158,-2.763 1.158,-4.271l0,-5.006c-0.269,0.273 -0.784,0.521 -1.544,0.747c-0.76,0.225 -1.623,0.424 -2.587,0.598c-0.965,0.173 -1.904,0.321 -2.817,0.442c-0.913,0.122 -1.66,0.219 -2.24,0.293c-1.397,0.182 -2.68,0.493 -3.849,0.933c-1.169,0.44 -2.097,1.067 -2.785,1.879c-0.688,0.813 -1.032,1.889 -1.032,3.229c0,1.234 0.309,2.268 0.927,3.101c0.618,0.833 1.462,1.463 2.533,1.89c1.071,0.427 2.297,0.64 3.679,0.64Z" style="fill:#fff;fill-rule:nonzero;"/><path d="M2968.71,1500.92l0,23.083l-7.466,0l0,-38.957l7.119,0l0.077,9.537l-0.77,0c1.101,-3.484 2.703,-6.026 4.805,-7.625c2.102,-1.6 4.645,-2.4 7.629,-2.4c2.582,0 4.839,0.556 6.773,1.667c1.934,1.112 3.439,2.756 4.516,4.935c1.077,2.178 1.615,4.875 1.615,8.09l0,24.753l-7.466,0l0,-23.797c0,-2.804 -0.712,-5.001 -2.135,-6.59c-1.424,-1.589 -3.376,-2.384 -5.857,-2.384c-1.684,0 -3.194,0.378 -4.531,1.135c-1.336,0.757 -2.388,1.856 -3.157,3.297c-0.768,1.442 -1.152,3.194 -1.152,5.256Z" style="fill:#fff;fill-rule:nonzero;"/></g><g><path d="M2876.02,1534.656l0,2.57l-7.268,0l0,-2.57l7.268,0Zm-5.581,-2.992l3.286,0l0,11.886c0,0.4 0.087,0.696 0.26,0.886c0.174,0.19 0.458,0.285 0.855,0.285c0.128,0 0.305,-0.016 0.53,-0.048c0.225,-0.032 0.396,-0.063 0.514,-0.093l0.47,2.53c-0.366,0.111 -0.729,0.189 -1.089,0.233c-0.36,0.044 -0.705,0.065 -1.036,0.065c-1.229,0 -2.168,-0.306 -2.817,-0.918c-0.649,-0.612 -0.973,-1.493 -0.973,-2.641l0,-12.183Z" style="fill:#fff;fill-rule:nonzero;"/><path d="M2883.471,1547.477c-1.251,0 -2.329,-0.263 -3.234,-0.789c-0.906,-0.526 -1.601,-1.272 -2.087,-2.24c-0.486,-0.967 -0.728,-2.114 -0.728,-3.44c0,-1.294 0.241,-2.429 0.724,-3.405c0.482,-0.976 1.165,-1.738 2.047,-2.285c0.882,-0.547 1.92,-0.82 3.113,-0.82c0.8,0 1.547,0.131 2.242,0.393c0.695,0.262 1.305,0.656 1.83,1.184c0.525,0.528 0.935,1.191 1.23,1.989c0.295,0.798 0.442,1.736 0.442,2.813l0,0.947l-10.28,0l0,-2.123l8.679,0l-1.536,0.569c0,-0.655 -0.097,-1.224 -0.292,-1.707c-0.195,-0.483 -0.483,-0.858 -0.866,-1.125c-0.382,-0.266 -0.858,-0.4 -1.426,-0.4c-0.568,0 -1.05,0.135 -1.446,0.405c-0.396,0.27 -0.697,0.636 -0.904,1.099c-0.207,0.463 -0.31,0.988 -0.31,1.578l0,1.494c0,0.727 0.119,1.339 0.356,1.833c0.237,0.495 0.571,0.866 1.001,1.115c0.43,0.249 0.929,0.373 1.496,0.373c0.384,0 0.732,-0.056 1.046,-0.168c0.314,-0.112 0.583,-0.278 0.809,-0.498c0.226,-0.22 0.398,-0.491 0.515,-0.813l2.971,0.564c-0.198,0.695 -0.541,1.301 -1.029,1.82c-0.488,0.518 -1.1,0.921 -1.836,1.207c-0.735,0.286 -1.578,0.429 -2.529,0.429Z" style="fill:#fff;fill-rule:nonzero;"/><path d="M2896.775,1547.477c-1.229,0 -2.291,-0.271 -3.186,-0.813c-0.896,-0.542 -1.586,-1.299 -2.071,-2.272c-0.485,-0.973 -0.728,-2.104 -0.728,-3.394c0,-1.3 0.243,-2.438 0.728,-3.412c0.485,-0.974 1.176,-1.733 2.071,-2.275c0.896,-0.542 1.958,-0.813 3.186,-0.813c0.73,0 1.401,0.097 2.014,0.291c0.613,0.194 1.156,0.471 1.63,0.832c0.474,0.361 0.864,0.8 1.17,1.316c0.306,0.516 0.518,1.097 0.634,1.741l-3.055,0.588c-0.068,-0.326 -0.17,-0.62 -0.308,-0.879c-0.137,-0.26 -0.305,-0.482 -0.503,-0.667c-0.198,-0.185 -0.427,-0.325 -0.686,-0.422c-0.259,-0.097 -0.546,-0.145 -0.861,-0.145c-0.585,0 -1.076,0.162 -1.472,0.485c-0.396,0.323 -0.695,0.772 -0.897,1.347c-0.202,0.575 -0.304,1.241 -0.304,2c0,0.748 0.101,1.41 0.304,1.987c0.202,0.577 0.502,1.029 0.897,1.357c0.396,0.328 0.886,0.491 1.472,0.491c0.318,0 0.609,-0.05 0.871,-0.151c0.262,-0.1 0.495,-0.246 0.699,-0.436c0.204,-0.19 0.374,-0.421 0.511,-0.694c0.137,-0.273 0.238,-0.578 0.302,-0.915l3.05,0.582c-0.113,0.664 -0.324,1.257 -0.632,1.781c-0.308,0.524 -0.699,0.972 -1.173,1.343c-0.474,0.372 -1.02,0.656 -1.638,0.851c-0.618,0.196 -1.294,0.294 -2.027,0.294Z" style="fill:#fff;fill-rule:nonzero;"/><path d="M2907.789,1539.95l0,7.281l-3.286,0l0,-16.76l3.227,0l0,7.324l-0.269,0c0.321,-1.049 0.809,-1.861 1.464,-2.435c0.655,-0.574 1.499,-0.862 2.534,-0.862c0.849,0 1.59,0.19 2.222,0.569c0.632,0.379 1.123,0.922 1.472,1.629c0.349,0.707 0.523,1.553 0.523,2.537l0,7.998l-3.291,0l0,-7.41c0,-0.781 -0.196,-1.394 -0.589,-1.838c-0.392,-0.444 -0.935,-0.666 -1.628,-0.666c-0.462,0 -0.873,0.104 -1.232,0.312c-0.359,0.208 -0.64,0.507 -0.843,0.898c-0.203,0.391 -0.305,0.865 -0.305,1.423Z" style="fill:#fff;fill-rule:nonzero;"/><path d="M2923.794,1547.231l0,-12.575l3.054,0l0.159,3.128l-0.236,0c0.184,-0.776 0.461,-1.407 0.833,-1.893c0.371,-0.487 0.806,-0.846 1.304,-1.077c0.498,-0.231 1.019,-0.347 1.565,-0.347c0.879,0 1.59,0.287 2.132,0.862c0.542,0.575 0.94,1.461 1.195,2.659l-0.381,0c0.182,-0.808 0.48,-1.472 0.895,-1.992c0.415,-0.52 0.904,-0.905 1.467,-1.155c0.563,-0.25 1.158,-0.374 1.785,-0.374c0.748,0 1.416,0.168 2.005,0.503c0.588,0.335 1.052,0.82 1.391,1.456c0.339,0.635 0.509,1.41 0.509,2.324l0,8.481l-3.286,0l0,-7.836c0,-0.713 -0.187,-1.243 -0.562,-1.591c-0.374,-0.347 -0.835,-0.521 -1.382,-0.521c-0.414,0 -0.772,0.093 -1.076,0.278c-0.303,0.186 -0.536,0.443 -0.699,0.773c-0.162,0.329 -0.243,0.716 -0.243,1.159l0,7.737l-3.179,0l0,-7.929c0,-0.616 -0.177,-1.107 -0.532,-1.472c-0.354,-0.365 -0.813,-0.547 -1.377,-0.547c-0.384,0 -0.732,0.091 -1.043,0.273c-0.312,0.182 -0.558,0.447 -0.738,0.793c-0.181,0.347 -0.271,0.773 -0.271,1.278l0,7.603l-3.286,0Z" style="fill:#fff;fill-rule:nonzero;"/><path d="M2947.691,1547.475c-0.778,0 -1.475,-0.141 -2.091,-0.423c-0.616,-0.282 -1.101,-0.701 -1.453,-1.258c-0.353,-0.557 -0.529,-1.25 -0.529,-2.079c0,-0.704 0.125,-1.291 0.375,-1.761c0.25,-0.47 0.592,-0.849 1.026,-1.136c0.434,-0.287 0.928,-0.505 1.48,-0.655c0.553,-0.15 1.132,-0.254 1.737,-0.313c0.707,-0.073 1.277,-0.142 1.712,-0.207c0.435,-0.065 0.753,-0.166 0.956,-0.303c0.203,-0.138 0.305,-0.342 0.305,-0.613l0,-0.055c0,-0.359 -0.074,-0.662 -0.223,-0.911c-0.148,-0.248 -0.365,-0.439 -0.651,-0.571c-0.285,-0.132 -0.636,-0.198 -1.052,-0.198c-0.419,0 -0.785,0.065 -1.099,0.196c-0.314,0.131 -0.571,0.305 -0.771,0.524c-0.2,0.218 -0.344,0.464 -0.432,0.736l-3.014,-0.514c0.208,-0.733 0.556,-1.354 1.046,-1.864c0.49,-0.51 1.099,-0.9 1.826,-1.169c0.728,-0.269 1.546,-0.404 2.454,-0.404c0.658,0 1.297,0.08 1.918,0.24c0.621,0.16 1.178,0.41 1.672,0.751c0.494,0.34 0.886,0.781 1.176,1.321c0.29,0.54 0.435,1.192 0.435,1.956l0,8.466l-3.117,0l0,-1.746l-0.108,0c-0.198,0.39 -0.461,0.734 -0.79,1.033c-0.328,0.299 -0.724,0.533 -1.185,0.703c-0.462,0.169 -0.996,0.254 -1.604,0.254Zm0.925,-2.366c0.518,0 0.972,-0.106 1.364,-0.317c0.392,-0.211 0.698,-0.497 0.92,-0.856c0.222,-0.359 0.332,-0.76 0.332,-1.201l0,-1.361c-0.1,0.069 -0.248,0.134 -0.443,0.194c-0.195,0.061 -0.413,0.115 -0.654,0.162c-0.24,0.048 -0.478,0.089 -0.712,0.125c-0.234,0.035 -0.443,0.066 -0.625,0.093c-0.404,0.056 -0.759,0.151 -1.065,0.285c-0.306,0.134 -0.544,0.313 -0.714,0.538c-0.169,0.225 -0.254,0.506 -0.254,0.844c0,0.326 0.08,0.599 0.24,0.821c0.16,0.222 0.379,0.389 0.656,0.503c0.277,0.113 0.596,0.17 0.955,0.17Z" style="fill:#fff;fill-rule:nonzero;"/><path d="M2957.297,1547.231l0,-12.575l3.287,1.988l0,10.588l-3.287,0Z" style="fill:#fff;fill-rule:nonzero;"/></g><path d="M3014.126,1543.152l-0,-9.13c8.487,0 14.405,-2.865 14.465,-11.577l5.707,0c0,10.138 -5.442,20.707 -20.172,20.707Z" style="fill:#fff;"/><path d="M3017.488,1484.658c9.981,0.912 18.158,9.894 18.158,20.156c-0,10.597 -8.453,19.089 -18.76,19.089c-10.656,0 -19.491,-9.178 -19.491,-20.216c-0,-11.395 9.106,-20.032 20.093,-19.028Zm-0.602,6.942c-6.961,-0.636 -12.702,4.867 -12.702,12.086c-0,7.213 5.738,13.247 12.702,13.247c6.56,0 11.97,-5.374 11.97,-12.119c0,-6.745 -5.41,-12.614 -11.97,-13.214Z" style="fill:#fff;"/></g><g><rect x="2835.73" y="1472.5" width="5.67" height="74.092" style="fill:#fff;fill-opacity:0.24;"/><g transform="matrix(92.158323,0,0,92.158323,2817.226889,1540.449241)"></g><text x="2422.674px" y="1540.449px" style="font-family:'Inter-Regular', 'Inter';font-size:92.158px;fill:#fff;">Connect.</text></g><g><path d="M700.85,1422.486c-55.447,21.165 -119.287,-2.053 -147.502,-55.912l-70.141,-133.889c-30.428,-58.083 -7.976,-129.943 50.107,-160.371c26.555,-13.912 55.99,-16.77 83.029,-10.224l0.42,0.103c13.968,3.435 27.288,9.384 39.231,17.617c1.589,1.095 2.557,2.884 2.606,4.813c0.049,1.929 -0.829,3.765 -2.36,4.939c-9.325,7.148 -16.801,16.589 -21.579,27.479c-0.71,1.618 -2.093,2.843 -3.785,3.352c-1.692,0.509 -3.521,0.251 -5.006,-0.707c-9.971,-6.43 -21.465,-10.194 -33.29,-10.92c-12.118,-0.745 -24.583,1.704 -36.112,7.744c-33.69,17.649 -46.714,59.331 -29.064,93.021l70.141,133.889c11.659,22.256 33.807,35.491 57.21,36.826c12.023,0.686 24.377,-1.772 35.811,-7.762c1.689,-0.885 3.327,-1.83 4.911,-2.832c1.968,-1.245 4.478,-1.245 6.446,-0c1.584,1.002 3.222,1.947 4.911,2.832c11.434,5.99 23.788,8.448 35.811,7.762c2.431,-0.139 4.708,1.198 5.77,3.39c1.063,2.191 0.703,4.807 -0.911,6.63c-9.3,10.502 -20.628,19.522 -33.785,26.415c-4.224,2.213 -8.52,4.145 -12.868,5.805Z" style="fill:#fff;"/><path d="M781.056,1062.09c27.039,-6.546 56.473,-3.687 83.029,10.224c58.083,30.428 80.535,102.288 50.107,160.371l-70.141,133.889c-28.215,53.859 -92.056,77.078 -147.502,55.912c-4.348,-1.66 -8.645,-3.593 -12.868,-5.805c-13.157,-6.893 -24.485,-15.912 -33.785,-26.415l-9.603,-10.845l14.462,0.825c12.023,0.686 24.377,-1.772 35.811,-7.762c1.689,-0.885 3.327,-1.83 4.911,-2.832l3.223,-2.038l3.223,2.038c1.584,1.002 3.222,1.947 4.911,2.832c11.434,5.99 23.788,8.448 35.811,7.762c23.402,-1.335 45.55,-14.57 57.21,-36.826l70.141,-133.889c17.649,-33.69 4.626,-75.372 -29.064,-93.021c-11.529,-6.04 -23.994,-8.489 -36.112,-7.744c-11.825,0.727 -23.319,4.491 -33.29,10.92l-5.948,3.835l-2.843,-6.48c-4.778,-10.89 -12.254,-20.331 -21.579,-27.479l-6.581,-5.045l6.827,-4.707c11.942,-8.233 25.262,-14.182 39.231,-17.617l0.411,-0.1l0.009,-0.002Z" style="fill:#fff;"/><path d="M610.488,1063.866c21.92,-23.799 53.338,-38.717 88.212,-38.717c34.874,0 66.292,14.918 88.212,38.717c9.783,10.622 17.674,23.013 23.136,36.636l3.108,7.752l-8.336,0.512c-11.825,0.727 -23.319,4.491 -33.29,10.92l-5.948,3.835l-2.843,-6.48c-4.778,-10.89 -12.254,-20.331 -21.579,-27.479c-11.772,-9.024 -26.495,-14.389 -42.46,-14.389c-15.965,0 -30.687,5.364 -42.46,14.389c-9.325,7.148 -16.801,16.589 -21.579,27.479l-2.843,6.48l-5.948,-3.835c-9.971,-6.43 -21.465,-10.194 -33.29,-10.92l-8.336,-0.512l3.108,-7.752c5.462,-13.623 13.353,-26.014 23.136,-36.636Z" style="fill:#fff;"/></g></g><g opacity="0.25"><path d="M2719.262,638.994c158.686,-270.529 452.585,-452.336 788.612,-452.336c336.027,0 629.926,181.807 788.612,452.336c-106.852,12.435 -210.846,43.606 -306.867,91.916c-111.02,-144.537 -285.58,-237.773 -481.745,-237.773c-196.165,-0 -370.725,93.236 -481.745,237.773c-96.021,-48.31 -200.015,-79.482 -306.867,-91.916Z" style="fill:#fff;fill-opacity:0.64;"/><path d="M3507.874,3311.021c-426.365,162.754 -917.262,-15.823 -1134.227,-429.978l-568.217,-1084.647c-233.987,-446.649 -61.333,-999.239 385.316,-1233.227c446.649,-233.987 999.239,-61.333 1233.227,385.316l256.895,490.377l-172.994,330.221l-355.383,-678.376c-155.493,-296.814 -522.709,-411.549 -819.524,-256.056c-296.814,155.493 -411.549,522.709 -256.056,819.524l568.218,1084.648c102.71,196.059 297.799,312.673 503.956,324.437c105.945,6.046 214.812,-15.599 315.567,-68.382c14.868,-7.789 29.279,-16.109 43.222,-24.925c13.943,8.816 28.354,17.136 43.222,24.925c100.755,52.783 209.623,74.428 315.567,68.382c-71.512,80.756 -158.622,150.101 -259.79,203.099c-32.494,17.023 -65.548,31.893 -99,44.662Z" style="fill:#fff;"/><path d="M3680.868,1438.862l311.322,594.27c180.989,345.482 118.684,754.348 -125.526,1030.127c-105.945,6.046 -214.812,-15.599 -315.567,-68.382c-14.868,-7.789 -29.279,-16.109 -43.222,-24.925c264.409,-167.18 360.539,-512.652 212.834,-794.599l-212.834,-406.271l172.994,-330.221Z" style="fill:#fff;"/><path d="M3591.776,948.485c233.987,-446.649 786.578,-619.303 1233.227,-385.316c446.649,233.987 619.303,786.578 385.316,1233.227l-568.217,1084.647c-233.987,446.649 -786.578,619.303 -1233.227,385.316c-446.649,-233.987 -619.303,-786.578 -385.316,-1233.227l568.217,-1084.647Zm271.481,142.222l-568.217,1084.647c-155.493,296.814 -40.758,664.031 256.056,819.524c296.814,155.493 664.031,40.758 819.524,-256.056l568.217,-1084.647c155.493,-296.814 40.758,-664.031 -256.056,-819.524c-296.814,-155.493 -664.031,-40.758 -819.524,256.056Z" style="fill:#fff;"/></g><g opacity="0.25"><path d="M-765.845,2096.226c158.686,-270.529 452.585,-452.336 788.612,-452.336c336.027,0 629.926,181.807 788.612,452.336c-106.852,12.435 -210.846,43.606 -306.867,91.916c-111.02,-144.537 -285.58,-237.773 -481.745,-237.773c-196.165,-0 -370.725,93.236 -481.745,237.773c-96.021,-48.31 -200.015,-79.482 -306.867,-91.916Z" style="fill:#fff;fill-opacity:0.64;"/><path d="M22.767,4768.252c-426.365,162.754 -917.262,-15.823 -1134.227,-429.978l-568.217,-1084.647c-233.987,-446.649 -61.333,-999.239 385.316,-1233.227c446.649,-233.987 999.239,-61.333 1233.227,385.316l256.895,490.377l-172.994,330.221l-355.383,-678.376c-155.493,-296.814 -522.709,-411.549 -819.524,-256.056c-296.814,155.493 -411.549,522.709 -256.056,819.524l568.218,1084.648c102.71,196.059 297.799,312.673 503.956,324.437c105.945,6.046 214.812,-15.599 315.567,-68.382c14.868,-7.789 29.279,-16.109 43.222,-24.925c13.943,8.816 28.354,17.136 43.222,24.925c100.755,52.783 209.623,74.428 315.567,68.382c-71.512,80.756 -158.622,150.101 -259.79,203.099c-32.494,17.023 -65.548,31.893 -99,44.662Z" style="fill:#fff;"/><path d="M106.668,2405.716c233.987,-446.649 786.578,-619.303 1233.227,-385.316c446.649,233.987 619.303,786.578 385.316,1233.227l-568.217,1084.647c-233.987,446.649 -786.578,619.303 -1233.227,385.316c-446.649,-233.987 -619.303,-786.578 -385.316,-1233.227l568.217,-1084.647Zm271.481,142.222l-568.217,1084.647c-155.493,296.814 -40.758,664.031 256.056,819.524c296.814,155.493 664.031,40.758 819.524,-256.056l568.217,-1084.647c155.493,-296.814 40.758,-664.031 -256.056,-819.524c-296.814,-155.493 -664.031,-40.758 -819.524,256.056Z" style="fill:#fff;"/></g></g></svg>