<?xml version="1.0" encoding="UTF-8" standalone="no"?>
<!DOCTYPE svg PUBLIC "-//W3C//DTD SVG 1.1//EN" "http://www.w3.org/Graphics/SVG/1.1/DTD/svg11.dtd">
<svg width="100%" height="100%" viewBox="0 0 235 86" version="1.1" xmlns="http://www.w3.org/2000/svg" xmlns:xlink="http://www.w3.org/1999/xlink" xml:space="preserve" xmlns:serif="http://www.serif.com/" style="fill-rule:evenodd;clip-rule:evenodd;stroke-linejoin:round;stroke-miterlimit:2;">
    <g transform="matrix(1,0,0,1,-383.542509,-2134.639035)">
        <g transform="matrix(0.758602,0,0,0.758602,-597.213347,1612.949084)">
            <g transform="matrix(0.684553,0,0,0.684553,452.785206,514.561844)">
                <path d="M1268.075,357.759C1260.725,357.759 1254.2,356.695 1248.499,354.568C1242.798,352.441 1238.117,349.31 1234.455,345.176C1230.794,341.042 1228.365,336 1227.168,330.048L1245.941,326.12C1247.348,331.395 1249.943,335.291 1253.727,337.807C1257.511,340.324 1262.341,341.582 1268.219,341.582C1274.657,341.582 1279.777,340.246 1283.579,337.573C1287.38,334.9 1289.281,331.67 1289.281,327.882C1289.281,324.661 1288.11,321.994 1285.766,319.88C1283.423,317.766 1279.837,316.173 1275.007,315.102L1257.957,311.245C1248.578,309.124 1241.593,305.744 1237.003,301.107C1232.413,296.47 1230.118,290.511 1230.118,283.231C1230.118,277.203 1231.796,271.928 1235.151,267.406C1238.505,262.884 1243.127,259.364 1249.014,256.846C1254.901,254.328 1261.663,253.069 1269.298,253.069C1276.604,253.069 1282.855,254.133 1288.05,256.26C1293.245,258.388 1297.46,261.342 1300.696,265.122C1303.931,268.902 1306.26,273.303 1307.684,278.326L1289.798,282.279C1288.517,278.708 1286.312,275.571 1283.184,272.866C1280.055,270.162 1275.494,268.81 1269.502,268.81C1263.983,268.81 1259.381,270.049 1255.695,272.529C1252.009,275.009 1250.166,278.173 1250.166,282.021C1250.166,285.365 1251.398,288.085 1253.861,290.182C1256.325,292.279 1260.326,293.957 1265.865,295.215L1282.142,298.84C1291.532,300.949 1298.494,304.277 1303.029,308.822C1307.564,313.367 1309.832,319.162 1309.832,326.207C1309.832,332.367 1308.068,337.817 1304.541,342.558C1301.014,347.299 1296.112,351.018 1289.835,353.714C1283.558,356.411 1276.304,357.759 1268.075,357.759Z" style="fill:white;fill-rule:nonzero;"/>
                <path d="M1322.384,355.649L1322.384,254.337L1341.675,254.337L1341.675,270.609L1342.762,270.609C1344.625,265.104 1347.886,260.78 1352.548,257.636C1357.209,254.492 1362.5,252.92 1368.421,252.92C1369.696,252.92 1371.155,252.967 1372.8,253.06C1374.445,253.153 1375.794,253.267 1376.848,253.404L1376.848,272.431C1376.125,272.213 1374.735,271.981 1372.677,271.733C1370.619,271.486 1368.529,271.362 1366.408,271.362C1361.803,271.362 1357.673,272.336 1354.016,274.284C1350.359,276.232 1347.495,278.913 1345.423,282.328C1343.352,285.743 1342.316,289.68 1342.316,294.14L1342.316,355.649L1322.384,355.649Z" style="fill:white;fill-rule:nonzero;"/>
                <path d="M1412.411,357.875C1405.997,357.875 1400.199,356.691 1395.017,354.324C1389.835,351.956 1385.73,348.474 1382.703,343.877C1379.677,339.279 1378.163,333.652 1378.163,326.995C1378.163,321.239 1379.273,316.521 1381.493,312.842C1383.712,309.163 1386.7,306.244 1390.454,304.084C1394.209,301.923 1398.398,300.3 1403.023,299.213C1407.648,298.126 1412.365,297.302 1417.175,296.741C1423.151,296.021 1428.006,295.433 1431.742,294.978C1435.477,294.522 1438.239,293.768 1440.027,292.714C1441.815,291.66 1442.709,289.943 1442.709,287.563L1442.709,287.052C1442.709,283.27 1441.981,280.068 1440.525,277.448C1439.068,274.828 1436.9,272.816 1434.019,271.414C1431.139,270.012 1427.554,269.311 1423.266,269.311C1418.89,269.311 1415.121,269.99 1411.96,271.348C1408.8,272.707 1406.229,274.434 1404.247,276.531C1402.266,278.628 1400.791,280.827 1399.823,283.129L1381.063,278.306C1383.367,272.231 1386.665,267.35 1390.955,263.665C1395.246,259.979 1400.166,257.292 1405.716,255.603C1411.266,253.913 1417.025,253.069 1422.993,253.069C1427.061,253.069 1431.391,253.555 1435.982,254.529C1440.574,255.502 1444.889,257.251 1448.928,259.776C1452.967,262.301 1456.263,265.87 1458.815,270.482C1461.367,275.094 1462.643,281.063 1462.643,288.39L1462.643,355.649L1443.356,355.649L1443.356,341.777L1442.334,341.777C1441.023,344.394 1439.069,346.94 1436.472,349.414C1433.875,351.889 1430.591,353.918 1426.619,355.5C1422.648,357.083 1417.912,357.875 1412.411,357.875ZM1416.836,341.916C1422.29,341.916 1426.947,340.847 1430.805,338.708C1434.663,336.57 1437.623,333.76 1439.683,330.277C1441.744,326.795 1442.774,323.093 1442.774,319.169L1442.774,306.152C1442.056,306.86 1440.682,307.508 1438.653,308.093C1436.624,308.679 1434.322,309.197 1431.746,309.647C1429.17,310.098 1426.663,310.481 1424.224,310.797C1421.786,311.113 1419.793,311.367 1418.244,311.559C1414.513,312.032 1411.088,312.841 1407.968,313.987C1404.849,315.132 1402.37,316.761 1400.534,318.874C1398.698,320.987 1397.779,323.787 1397.779,327.273C1397.779,330.483 1398.604,333.171 1400.253,335.337C1401.902,337.503 1404.156,339.141 1407.015,340.251C1409.873,341.361 1413.147,341.916 1416.836,341.916Z" style="fill:white;fill-rule:nonzero;"/>
                <path d="M1500.103,295.62L1500.103,355.649L1480.171,355.649L1480.171,254.337L1499.176,254.337L1499.381,279.14L1497.327,279.14C1500.267,270.08 1504.543,263.47 1510.153,259.309C1515.764,255.149 1522.553,253.069 1530.519,253.069C1537.41,253.069 1543.437,254.514 1548.6,257.405C1553.762,260.296 1557.781,264.574 1560.656,270.238C1563.53,275.903 1564.968,282.916 1564.968,291.277L1564.968,355.649L1545.036,355.649L1545.036,293.762C1545.036,286.469 1543.136,280.756 1539.335,276.623C1535.535,272.49 1530.324,270.424 1523.701,270.424C1519.205,270.424 1515.173,271.408 1511.606,273.375C1508.039,275.343 1505.23,278.201 1503.179,281.95C1501.129,285.699 1500.103,290.255 1500.103,295.62Z" style="fill:white;fill-rule:nonzero;"/>
            </g>
            <g transform="matrix(0.220973,0,0,0.220973,1027.404243,720.787468)">
                <path d="M1280.215,254.337L1280.215,275.045L1220.107,275.045L1220.107,254.337L1280.215,254.337ZM1234.058,230.233L1261.232,230.233L1261.232,325.993C1261.232,329.219 1261.95,331.597 1263.385,333.127C1264.82,334.657 1267.176,335.421 1270.454,335.421C1271.514,335.421 1272.975,335.293 1274.837,335.035C1276.699,334.777 1278.115,334.527 1279.085,334.286L1282.976,354.665C1279.947,355.563 1276.944,356.187 1273.967,356.538C1270.991,356.89 1268.135,357.065 1265.402,357.065C1255.239,357.065 1247.475,354.599 1242.108,349.668C1236.741,344.736 1234.058,337.642 1234.058,328.387L1234.058,230.233Z" style="fill:white;fill-rule:nonzero;"/>
                <path d="M1341.837,357.629C1331.495,357.629 1322.579,355.511 1315.089,351.275C1307.6,347.04 1301.847,341.026 1297.831,333.232C1293.816,325.439 1291.808,316.2 1291.808,305.516C1291.808,295.092 1293.803,285.947 1297.793,278.082C1301.783,270.217 1307.427,264.082 1314.724,259.677C1322.021,255.271 1330.604,253.069 1340.472,253.069C1347.088,253.069 1353.27,254.123 1359.017,256.231C1364.765,258.34 1369.809,261.519 1374.15,265.77C1378.491,270.02 1381.881,275.361 1384.32,281.793C1386.759,288.224 1387.979,295.779 1387.979,304.458L1387.979,312.087L1302.961,312.087L1302.961,294.986L1374.736,294.986L1362.035,299.57C1362.035,294.296 1361.229,289.712 1359.619,285.818C1358.008,281.925 1355.621,278.905 1352.459,276.758C1349.297,274.611 1345.366,273.537 1340.667,273.537C1335.968,273.537 1331.982,274.625 1328.709,276.8C1325.436,278.974 1322.945,281.925 1321.237,285.651C1319.528,289.377 1318.674,293.615 1318.674,298.363L1318.674,310.401C1318.674,316.262 1319.655,321.185 1321.616,325.171C1323.578,329.157 1326.337,332.151 1329.893,334.155C1333.45,336.158 1337.575,337.16 1342.269,337.16C1345.441,337.16 1348.324,336.708 1350.918,335.805C1353.511,334.902 1355.741,333.564 1357.608,331.793C1359.475,330.022 1360.895,327.839 1361.871,325.244L1386.445,329.789C1384.809,335.386 1381.972,340.272 1377.933,344.448C1373.894,348.624 1368.833,351.865 1362.751,354.17C1356.668,356.476 1349.697,357.629 1341.837,357.629Z" style="fill:white;fill-rule:nonzero;"/>
                <path d="M1451.856,357.629C1441.695,357.629 1432.911,355.446 1425.504,351.079C1418.098,346.713 1412.389,340.611 1408.375,332.774C1404.362,324.937 1402.356,315.823 1402.356,305.432C1402.356,294.957 1404.362,285.794 1408.375,277.944C1412.389,270.093 1418.098,263.984 1425.504,259.618C1432.911,255.252 1441.695,253.069 1451.856,253.069C1457.892,253.069 1463.443,253.85 1468.51,255.412C1473.577,256.974 1478.071,259.21 1481.992,262.118C1485.912,265.026 1489.139,268.56 1491.672,272.718C1494.204,276.877 1495.953,281.553 1496.919,286.746L1471.651,291.48C1471.089,288.85 1470.241,286.488 1469.106,284.395C1467.97,282.301 1466.583,280.511 1464.944,279.024C1463.305,277.537 1461.414,276.405 1459.271,275.627C1457.128,274.849 1454.754,274.46 1452.149,274.46C1447.308,274.46 1443.25,275.763 1439.977,278.367C1436.704,280.971 1434.231,284.589 1432.556,289.219C1430.882,293.849 1430.045,299.221 1430.045,305.335C1430.045,311.36 1430.882,316.697 1432.556,321.346C1434.231,325.995 1436.704,329.639 1439.977,332.278C1443.25,334.917 1447.308,336.237 1452.149,336.237C1454.783,336.237 1457.185,335.833 1459.355,335.024C1461.526,334.216 1463.453,333.046 1465.136,331.516C1466.819,329.985 1468.228,328.121 1469.363,325.923C1470.498,323.725 1471.331,321.266 1471.86,318.548L1497.086,323.233C1496.148,328.58 1494.406,333.363 1491.859,337.582C1489.313,341.801 1486.081,345.409 1482.162,348.405C1478.244,351.401 1473.729,353.688 1468.618,355.264C1463.506,356.84 1457.919,357.629 1451.856,357.629Z" style="fill:white;fill-rule:nonzero;"/>
                <path d="M1542.942,296.989L1542.942,355.649L1515.768,355.649L1515.768,220.627L1542.453,220.627L1542.453,279.629L1540.231,279.629C1542.888,271.178 1546.925,264.639 1552.34,260.011C1557.755,255.383 1564.74,253.069 1573.293,253.069C1580.315,253.069 1586.441,254.596 1591.671,257.649C1596.902,260.703 1600.96,265.079 1603.846,270.776C1606.732,276.474 1608.175,283.286 1608.175,291.212L1608.175,355.649L1580.958,355.649L1580.958,295.947C1580.958,289.655 1579.336,284.719 1576.09,281.141C1572.844,277.563 1568.356,275.774 1562.625,275.774C1558.803,275.774 1555.408,276.611 1552.438,278.286C1549.469,279.96 1547.144,282.372 1545.464,285.522C1543.783,288.673 1542.942,292.495 1542.942,296.989Z" style="fill:white;fill-rule:nonzero;"/>
                <path d="M1675.306,355.649L1675.306,254.337L1700.559,254.337L1701.873,279.537L1699.919,279.537C1701.439,273.289 1703.735,268.204 1706.807,264.284C1709.879,260.363 1713.472,257.472 1717.588,255.61C1721.703,253.749 1726.017,252.818 1730.53,252.818C1737.803,252.818 1743.679,255.133 1748.159,259.762C1752.638,264.391 1755.934,271.532 1758.045,281.186L1754.892,281.186C1756.394,274.676 1758.86,269.325 1762.29,265.135C1765.721,260.944 1769.765,257.843 1774.424,255.833C1779.083,253.823 1784.003,252.818 1789.184,252.818C1795.37,252.818 1800.896,254.168 1805.762,256.869C1810.628,259.57 1814.463,263.479 1817.267,268.598C1820.071,273.716 1821.473,279.958 1821.473,287.323L1821.473,355.649L1794.298,355.649L1794.298,292.522C1794.298,286.778 1792.75,282.507 1789.654,279.708C1786.557,276.909 1782.747,275.51 1778.224,275.51C1774.802,275.51 1771.836,276.257 1769.326,277.752C1766.816,279.248 1764.89,281.322 1763.549,283.976C1762.208,286.63 1761.537,289.743 1761.537,293.315L1761.537,355.649L1735.243,355.649L1735.243,291.771C1735.243,286.805 1733.778,282.854 1730.848,279.916C1727.917,276.978 1724.121,275.51 1719.459,275.51C1716.282,275.51 1713.406,276.243 1710.829,277.711C1708.253,279.178 1706.217,281.308 1704.723,284.101C1703.228,286.893 1702.48,290.326 1702.48,294.398L1702.48,355.649L1675.306,355.649Z" style="fill:white;fill-rule:nonzero;"/>
                <path d="M1872.943,357.614C1866.507,357.614 1860.741,356.48 1855.646,354.21C1850.551,351.94 1846.544,348.561 1843.626,344.072C1840.709,339.583 1839.25,334 1839.25,327.322C1839.25,321.653 1840.283,316.924 1842.351,313.136C1844.418,309.348 1847.247,306.298 1850.838,303.985C1854.43,301.673 1858.51,299.913 1863.081,298.707C1867.652,297.5 1872.44,296.661 1877.445,296.188C1883.29,295.598 1888.01,295.042 1891.604,294.522C1895.198,294.001 1897.835,293.187 1899.514,292.078C1901.193,290.969 1902.033,289.323 1902.033,287.14L1902.033,286.694C1902.033,283.803 1901.419,281.357 1900.191,279.357C1898.963,277.356 1897.169,275.824 1894.811,274.759C1892.453,273.693 1889.553,273.161 1886.114,273.161C1882.65,273.161 1879.621,273.687 1877.026,274.741C1874.43,275.794 1872.305,277.201 1870.65,278.961C1868.995,280.721 1867.803,282.697 1867.074,284.89L1842.149,280.753C1843.867,274.851 1846.751,269.846 1850.801,265.736C1854.852,261.627 1859.887,258.488 1865.904,256.32C1871.922,254.153 1878.687,253.069 1886.199,253.069C1891.637,253.069 1896.923,253.713 1902.058,255.002C1907.193,256.29 1911.802,258.306 1915.885,261.048C1919.967,263.791 1923.209,267.338 1925.609,271.689C1928.009,276.04 1929.209,281.292 1929.209,287.444L1929.209,355.649L1903.43,355.649L1903.43,341.582L1902.54,341.582C1900.902,344.721 1898.725,347.495 1896.008,349.904C1893.291,352.314 1890.024,354.201 1886.204,355.566C1882.385,356.932 1877.965,357.614 1872.943,357.614ZM1880.596,338.556C1884.876,338.556 1888.635,337.705 1891.874,336.001C1895.112,334.298 1897.648,331.999 1899.481,329.104C1901.313,326.208 1902.23,322.984 1902.23,319.43L1902.23,308.468C1901.402,309.025 1900.18,309.547 1898.565,310.035C1896.949,310.522 1895.147,310.959 1893.158,311.344C1891.169,311.729 1889.206,312.063 1887.268,312.347C1885.33,312.631 1883.608,312.879 1882.102,313.092C1878.763,313.544 1875.827,314.309 1873.294,315.389C1870.761,316.469 1868.794,317.913 1867.393,319.722C1865.992,321.531 1865.291,323.798 1865.291,326.522C1865.291,329.146 1865.953,331.35 1867.276,333.135C1868.599,334.921 1870.407,336.271 1872.7,337.185C1874.993,338.099 1877.625,338.556 1880.596,338.556Z" style="fill:white;fill-rule:nonzero;"/>
                <path d="M1952.385,355.649L1952.385,254.337L1979.57,270.35L1979.57,355.649L1952.385,355.649Z" style="fill:white;fill-rule:nonzero;"/>
            </g>
            <g transform="matrix(2.034423,0,0,2.237548,-1616.374265,-997.507462)">
                <path d="M1562.632,799.814L1562.632,792.549C1570.256,792.549 1575.572,790.269 1575.626,783.338L1580.752,783.338C1580.752,791.404 1575.864,799.814 1562.632,799.814Z" style="fill:white;"/>
            </g>
            <g transform="matrix(0.289832,0,0,0.299145,1233.212691,505.290817)">
                <path d="M1157.952,610.705C1220.884,616.134 1272.44,669.583 1272.44,730.653C1272.44,793.716 1219.141,844.254 1154.155,844.254C1086.968,844.254 1031.258,789.633 1031.258,723.943C1031.258,656.128 1088.672,604.728 1157.952,610.705ZM1154.155,652.018C1110.264,648.231 1074.067,680.98 1074.067,723.943C1074.067,766.87 1110.25,802.777 1154.155,802.777C1195.519,802.777 1229.631,770.793 1229.631,730.653C1229.631,690.513 1195.518,655.586 1154.155,652.018Z" style="fill:white;"/>
            </g>
        </g>
    </g>
</svg>
