<?xml version="1.0" encoding="UTF-8" standalone="no"?><!DOCTYPE svg PUBLIC "-//W3C//DTD SVG 1.1//EN" "http://www.w3.org/Graphics/SVG/1.1/DTD/svg11.dtd"><svg width="100%" height="100%" viewBox="0 0 806 127" version="1.1" xmlns="http://www.w3.org/2000/svg" xmlns:xlink="http://www.w3.org/1999/xlink" xml:space="preserve" xmlns:serif="http://www.serif.com/" style="fill-rule:evenodd;clip-rule:evenodd;stroke-linejoin:round;stroke-miterlimit:2;"><g><g><path d="M28.003,94.276c-5.031,0 -9.498,-0.728 -13.401,-2.184c-3.903,-1.456 -7.107,-3.599 -9.614,-6.429c-2.507,-2.83 -4.169,-6.282 -4.989,-10.356l12.852,-2.689c0.963,3.611 2.739,6.278 5.33,8c2.59,1.723 5.897,2.584 9.921,2.584c4.407,0 7.912,-0.915 10.514,-2.744c2.602,-1.83 3.904,-4.041 3.904,-6.634c0,-2.205 -0.802,-4.031 -2.406,-5.478c-1.604,-1.447 -4.059,-2.537 -7.365,-3.271l-11.672,-2.64c-6.42,-1.452 -11.202,-3.765 -14.344,-6.939c-3.142,-3.174 -4.713,-7.254 -4.713,-12.238c0,-4.127 1.148,-7.738 3.445,-10.833c2.297,-3.096 5.46,-5.505 9.49,-7.229c4.03,-1.724 8.659,-2.586 13.886,-2.586c5.001,0 9.28,0.728 12.837,2.185c3.556,1.456 6.442,3.479 8.657,6.066c2.215,2.588 3.809,5.601 4.784,9.039l-12.244,2.706c-0.877,-2.444 -2.386,-4.592 -4.528,-6.444c-2.142,-1.851 -5.264,-2.777 -9.366,-2.777c-3.778,0 -6.929,0.849 -9.452,2.546c-2.523,1.698 -3.785,3.864 -3.785,6.498c0,2.289 0.843,4.151 2.529,5.586c1.686,1.435 4.425,2.584 8.217,3.445l11.143,2.481c6.428,1.444 11.194,3.722 14.298,6.833c3.105,3.111 4.657,7.078 4.657,11.901c0,4.217 -1.207,7.948 -3.622,11.194c-2.414,3.245 -5.77,5.791 -10.067,7.637c-4.297,1.846 -9.262,2.769 -14.896,2.769Z" style="fill-rule:nonzero;"/><path d="M65.181,92.832l0,-69.353l13.205,0l0,11.139l0.744,0c1.275,-3.769 3.508,-6.729 6.699,-8.881c3.191,-2.152 6.813,-3.228 10.866,-3.228c0.872,0 1.871,0.032 2.997,0.095c1.126,0.064 2.05,0.142 2.771,0.236l0,13.025c-0.494,-0.149 -1.446,-0.309 -2.855,-0.478c-1.409,-0.169 -2.839,-0.254 -4.291,-0.254c-3.152,0 -5.98,0.667 -8.483,2c-2.503,1.333 -4.464,3.169 -5.882,5.506c-1.418,2.338 -2.127,5.033 -2.127,8.086l0,42.106l-13.644,0Z" style="fill-rule:nonzero;"/><path d="M126.809,94.356c-4.391,0 -8.36,-0.81 -11.907,-2.431c-3.548,-1.621 -6.357,-4.005 -8.429,-7.152c-2.072,-3.147 -3.108,-6.999 -3.108,-11.556c0,-3.94 0.76,-7.17 2.279,-9.688c1.519,-2.518 3.564,-4.517 6.135,-5.996c2.57,-1.479 5.438,-2.59 8.604,-3.334c3.166,-0.744 6.395,-1.308 9.687,-1.692c4.091,-0.493 7.415,-0.895 9.972,-1.207c2.557,-0.312 4.447,-0.828 5.672,-1.55c1.224,-0.721 1.836,-1.897 1.836,-3.526l0,-0.35c0,-2.589 -0.499,-4.781 -1.496,-6.575c-0.997,-1.794 -2.481,-3.171 -4.453,-4.131c-1.972,-0.96 -4.426,-1.44 -7.361,-1.44c-2.996,0 -5.575,0.465 -7.739,1.395c-2.164,0.93 -3.924,2.113 -5.28,3.548c-1.356,1.435 -2.366,2.941 -3.029,4.516l-12.842,-3.301c1.577,-4.159 3.835,-7.5 6.772,-10.023c2.937,-2.523 6.305,-4.363 10.105,-5.519c3.799,-1.156 7.741,-1.735 11.827,-1.735c2.785,0 5.749,0.333 8.892,0.999c3.143,0.666 6.097,1.864 8.862,3.592c2.765,1.729 5.021,4.171 6.768,7.329c1.747,3.157 2.62,7.244 2.62,12.259l0,46.042l-13.202,0l0,-9.496l-0.7,0c-0.898,1.791 -2.235,3.534 -4.013,5.228c-1.778,1.694 -4.026,3.083 -6.745,4.166c-2.719,1.084 -5.961,1.625 -9.726,1.625Zm3.029,-10.925c3.734,0 6.921,-0.732 9.562,-2.196c2.641,-1.464 4.667,-3.388 6.078,-5.772c1.411,-2.384 2.116,-4.918 2.116,-7.604l0,-8.911c-0.492,0.485 -1.432,0.928 -2.821,1.329c-1.389,0.401 -2.965,0.756 -4.729,1.064c-1.763,0.308 -3.48,0.571 -5.149,0.787c-1.669,0.216 -3.034,0.39 -4.094,0.521c-2.554,0.324 -4.898,0.878 -7.034,1.662c-2.136,0.784 -3.832,1.899 -5.089,3.346c-1.257,1.446 -1.886,3.363 -1.886,5.749c0,2.198 0.564,4.038 1.693,5.52c1.129,1.483 2.672,2.604 4.629,3.364c1.957,0.76 4.198,1.14 6.723,1.14Z" style="fill-rule:nonzero;"/><path d="M186.839,51.739l0,41.093l-13.644,0l0,-69.353l13.01,0l0.141,16.979l-1.406,0c2.013,-6.202 4.94,-10.727 8.781,-13.575c3.841,-2.848 8.488,-4.272 13.941,-4.272c4.718,0 8.844,0.989 12.378,2.968c3.534,1.979 6.285,4.907 8.253,8.785c1.968,3.878 2.952,8.679 2.952,14.402l0,44.066l-13.644,0l0,-42.365c0,-4.992 -1.301,-8.903 -3.902,-11.733c-2.602,-2.829 -6.169,-4.244 -10.703,-4.244c-3.078,0 -5.838,0.673 -8.28,2.02c-2.442,1.347 -4.365,3.304 -5.769,5.87c-1.404,2.566 -2.106,5.686 -2.106,9.358Z" style="fill-rule:nonzero;"/></g><path d="M269.834,126.923l-0,-16.255c15.509,0 26.325,-5.101 26.434,-20.61l10.43,0c0,18.048 -9.945,36.864 -36.864,36.864Z"/><path d="M275.978,22.79c18.24,1.624 33.183,17.613 33.183,35.882c-0,18.865 -15.448,33.983 -34.283,33.983c-19.473,0 -35.619,-16.339 -35.619,-35.99c-0,-20.287 16.64,-35.662 36.72,-33.874Zm-1.1,12.358c-12.721,-1.133 -23.212,8.664 -23.212,21.516c-0,12.841 10.487,23.583 23.212,23.583c11.989,0 21.876,-9.568 21.876,-21.575c0,-12.008 -9.887,-22.456 -21.876,-23.523Z"/><g><path d="M379.257,23.177l0,11.143l-37.784,0l0,-11.143l37.784,0Zm-27.609,-16.573l13.705,0l0,67.387c0,2.816 0.587,4.877 1.76,6.183c1.173,1.306 3.119,1.959 5.836,1.959c0.713,0 1.65,-0.085 2.811,-0.255c1.161,-0.17 2.157,-0.338 2.988,-0.504l2.429,10.984c-1.47,0.483 -3.037,0.834 -4.703,1.053c-1.665,0.219 -3.295,0.329 -4.891,0.329c-6.344,0 -11.253,-1.624 -14.726,-4.873c-3.473,-3.249 -5.21,-7.83 -5.21,-13.745l0,-68.517Z" style="fill-rule:nonzero;"/><path d="M415.244,94.284c-6.856,0 -12.769,-1.482 -17.739,-4.446c-4.97,-2.964 -8.794,-7.126 -11.473,-12.484c-2.679,-5.358 -4.018,-11.643 -4.018,-18.855c0,-7.152 1.316,-13.443 3.947,-18.873c2.631,-5.43 6.355,-9.674 11.17,-12.733c4.815,-3.059 10.458,-4.588 16.929,-4.588c3.981,0 7.828,0.65 11.54,1.95c3.712,1.3 7.042,3.344 9.989,6.132c2.947,2.788 5.282,6.401 7.004,10.838c1.722,4.437 2.583,9.796 2.583,16.077l0,4.864l-55.538,0l0,-10.233l48.474,0l-6.4,3.377c0,-4.255 -0.662,-8.012 -1.986,-11.272c-1.324,-3.26 -3.29,-5.807 -5.898,-7.643c-2.608,-1.835 -5.848,-2.753 -9.722,-2.753c-3.874,0 -7.183,0.935 -9.926,2.804c-2.744,1.869 -4.838,4.331 -6.282,7.387c-1.444,3.056 -2.166,6.387 -2.166,9.995l0,6.955c0,4.777 0.82,8.819 2.461,12.128c1.64,3.309 3.941,5.809 6.902,7.5c2.961,1.692 6.392,2.537 10.292,2.537c2.554,0 4.877,-0.367 6.966,-1.1c2.09,-0.733 3.889,-1.836 5.396,-3.308c1.508,-1.472 2.664,-3.294 3.469,-5.467l12.86,3.035c-1.095,3.608 -2.964,6.777 -5.606,9.507c-2.643,2.729 -5.928,4.857 -9.855,6.382c-3.927,1.525 -8.384,2.288 -13.371,2.288Z" style="fill-rule:nonzero;"/><path d="M483.05,94.284c-6.538,0 -12.241,-1.497 -17.109,-4.492c-4.868,-2.995 -8.648,-7.19 -11.34,-12.585c-2.692,-5.396 -4.038,-11.666 -4.038,-18.81c0,-7.247 1.346,-13.577 4.038,-18.989c2.692,-5.413 6.472,-9.616 11.34,-12.611c4.868,-2.995 10.571,-4.492 17.109,-4.492c3.626,0 7.017,0.47 10.172,1.409c3.155,0.939 6.006,2.289 8.552,4.05c2.546,1.76 4.705,3.913 6.476,6.459c1.771,2.545 3.086,5.424 3.945,8.635l-12.977,3.12c-0.461,-1.793 -1.168,-3.428 -2.121,-4.905c-0.952,-1.477 -2.108,-2.752 -3.467,-3.827c-1.359,-1.074 -2.92,-1.902 -4.685,-2.481c-1.765,-0.58 -3.707,-0.87 -5.827,-0.87c-4.211,0 -7.688,1.108 -10.432,3.325c-2.744,2.217 -4.792,5.171 -6.145,8.863c-1.353,3.692 -2.029,7.789 -2.029,12.291c0,4.427 0.676,8.481 2.029,12.163c1.353,3.682 3.401,6.629 6.145,8.84c2.744,2.211 6.221,3.317 10.432,3.317c2.154,0 4.131,-0.3 5.93,-0.901c1.799,-0.601 3.397,-1.457 4.793,-2.57c1.396,-1.112 2.571,-2.447 3.523,-4.003c0.952,-1.556 1.655,-3.269 2.109,-5.138l12.926,3.109c-0.824,3.302 -2.131,6.247 -3.919,8.834c-1.788,2.587 -3.962,4.798 -6.522,6.634c-2.559,1.836 -5.435,3.232 -8.628,4.189c-3.193,0.957 -6.619,1.435 -10.28,1.435Z" style="fill-rule:nonzero;"/><path d="M534.72,51.561l0,41.273l-13.704,0l0,-92.833l13.592,0l0,40.23l-1.797,0c2.022,-6.229 4.961,-10.774 8.819,-13.634c3.858,-2.86 8.525,-4.291 14.002,-4.291c4.738,0 8.891,0.994 12.457,2.981c3.566,1.988 6.338,4.929 8.315,8.823c1.977,3.895 2.965,8.716 2.965,14.465l0,44.258l-13.756,0l0,-42.55c0,-5.014 -1.306,-8.942 -3.919,-11.784c-2.613,-2.842 -6.196,-4.262 -10.749,-4.262c-3.091,0 -5.863,0.676 -8.316,2.029c-2.453,1.353 -4.384,3.318 -5.794,5.896c-1.41,2.578 -2.115,5.71 -2.115,9.399Z" style="fill-rule:nonzero;"/><path d="M619.044,92.833l0,-69.656l13.057,0l0.343,16.159l-1.03,0c0.985,-3.952 2.515,-7.201 4.59,-9.747c2.075,-2.546 4.505,-4.448 7.289,-5.705c2.785,-1.257 5.691,-1.886 8.719,-1.886c5.045,0 9.126,1.569 12.243,4.706c3.117,3.138 5.223,7.502 6.316,13.093l-1.719,0c0.898,-3.818 2.473,-7.052 4.727,-9.701c2.254,-2.65 4.96,-4.662 8.119,-6.036c3.158,-1.375 6.564,-2.062 10.215,-2.062c4.104,0 7.821,0.891 11.151,2.673c3.33,1.782 5.975,4.436 7.933,7.963c1.958,3.527 2.937,7.934 2.937,13.222l0,46.977l-13.705,0l0,-45.579c0,-4.667 -1.296,-8.041 -3.889,-10.123c-2.592,-2.081 -5.653,-3.122 -9.183,-3.122c-2.861,0 -5.333,0.607 -7.418,1.822c-2.084,1.215 -3.689,2.888 -4.813,5.019c-1.124,2.131 -1.687,4.589 -1.687,7.374l0,44.607l-13.503,0l0,-46.498c0,-3.714 -1.194,-6.696 -3.582,-8.948c-2.388,-2.252 -5.432,-3.378 -9.131,-3.378c-2.528,0 -4.883,0.59 -7.066,1.771c-2.183,1.181 -3.93,2.922 -5.242,5.224c-1.312,2.302 -1.968,5.151 -1.968,8.549l0,43.279l-13.704,0Z" style="fill-rule:nonzero;"/><path d="M745.476,94.364c-4.41,0 -8.396,-0.814 -11.96,-2.442c-3.563,-1.628 -6.385,-4.022 -8.466,-7.183c-2.081,-3.161 -3.122,-7.03 -3.122,-11.607c0,-3.958 0.763,-7.201 2.289,-9.731c1.526,-2.529 3.58,-4.537 6.161,-6.022c2.581,-1.485 5.462,-2.602 8.642,-3.349c3.18,-0.747 6.423,-1.314 9.73,-1.699c4.109,-0.495 7.447,-0.899 10.015,-1.213c2.568,-0.313 4.467,-0.832 5.696,-1.557c1.23,-0.725 1.844,-1.905 1.844,-3.541l0,-0.351c0,-2.601 -0.501,-4.802 -1.502,-6.603c-1.001,-1.802 -2.492,-3.184 -4.473,-4.149c-1.98,-0.964 -4.445,-1.446 -7.393,-1.446c-3.009,0 -5.6,0.467 -7.773,1.401c-2.173,0.934 -3.941,2.122 -5.303,3.564c-1.362,1.442 -2.376,2.954 -3.042,4.536l-12.898,-3.316c1.584,-4.177 3.851,-7.532 6.801,-10.067c2.95,-2.534 6.333,-4.382 10.149,-5.543c3.816,-1.161 7.775,-1.742 11.878,-1.742c2.797,0 5.774,0.335 8.931,1.004c3.157,0.669 6.124,1.872 8.901,3.608c2.777,1.736 5.043,4.19 6.798,7.361c1.755,3.171 2.632,7.275 2.632,12.313l0,46.243l-13.26,0l0,-9.537l-0.703,0c-0.901,1.799 -2.245,3.549 -4.03,5.251c-1.785,1.701 -4.043,3.096 -6.774,4.185c-2.731,1.088 -5.987,1.633 -9.769,1.633Zm3.042,-10.972c3.75,0 6.951,-0.735 9.604,-2.205c2.653,-1.47 4.688,-3.403 6.104,-5.797c1.417,-2.394 2.125,-4.94 2.125,-7.637l0,-8.95c-0.494,0.487 -1.438,0.932 -2.833,1.335c-1.395,0.403 -2.978,0.759 -4.749,1.068c-1.771,0.31 -3.495,0.573 -5.171,0.79c-1.676,0.217 -3.047,0.392 -4.112,0.524c-2.565,0.325 -4.92,0.882 -7.065,1.669c-2.145,0.788 -3.849,1.908 -5.111,3.361c-1.263,1.453 -1.894,3.378 -1.894,5.774c0,2.207 0.567,4.055 1.701,5.545c1.134,1.489 2.683,2.615 4.649,3.379c1.966,0.763 4.216,1.145 6.753,1.145Z" style="fill-rule:nonzero;"/><path d="M792.068,92.833l0,-69.656l13.707,7.978l0,61.678l-13.707,0Z" style="fill-rule:nonzero;"/></g></g></svg>