<?xml version="1.0" encoding="UTF-8" standalone="no"?><!DOCTYPE svg PUBLIC "-//W3C//DTD SVG 1.1//EN" "http://www.w3.org/Graphics/SVG/1.1/DTD/svg11.dtd"><svg width="100%" height="100%" viewBox="0 0 611 125" version="1.1" xmlns="http://www.w3.org/2000/svg" xmlns:xlink="http://www.w3.org/1999/xlink" xml:space="preserve" xmlns:serif="http://www.serif.com/" style="fill-rule:evenodd;clip-rule:evenodd;stroke-linejoin:round;stroke-miterlimit:2;"><g><path d="M112.835,27.598l9.592,0l0.257,12.139c0.868,-2.387 1.998,-4.435 3.391,-6.145c1.94,-2.38 4.211,-4.158 6.814,-5.333c2.603,-1.175 5.32,-1.763 8.151,-1.763c4.716,0 8.531,1.467 11.445,4.4c2.338,2.353 4.067,5.444 5.187,9.273c0.857,-2.309 2.033,-4.343 3.529,-6.102c2.107,-2.477 4.637,-4.358 7.589,-5.643c2.952,-1.285 6.136,-1.927 9.55,-1.927c3.836,0 7.311,0.833 10.424,2.499c3.113,1.666 5.585,4.147 7.416,7.444c1.83,3.297 2.746,7.417 2.746,12.36l0,43.915l-12.812,0l0,-42.607c0,-4.363 -1.212,-7.517 -3.635,-9.463c-2.423,-1.946 -5.285,-2.919 -8.584,-2.919c-2.674,0 -4.986,0.568 -6.934,1.704c-1.948,1.136 -3.448,2.7 -4.499,4.692c-1.051,1.992 -1.577,4.29 -1.577,6.894l0,41.699l-12.622,0l0,-43.467c0,-3.472 -1.116,-6.26 -3.349,-8.365c-2.233,-2.105 -5.078,-3.157 -8.536,-3.157c-2.363,0 -4.565,0.552 -6.605,1.656c-2.04,1.104 -3.674,2.732 -4.9,4.883c-1.226,2.152 -1.84,4.816 -1.84,7.992l0,40.458l-12.811,0l0,-41.101c4.005,-7.693 4.706,-16.241 2.613,-24.015Zm109.589,36.446c0.136,3.906 0.895,7.254 2.278,10.044c1.533,3.093 3.684,5.43 6.452,7.011c2.768,1.581 5.975,2.372 9.621,2.372c2.388,0 4.559,-0.343 6.512,-1.028c1.954,-0.686 3.635,-1.716 5.044,-3.092c1.409,-1.376 2.49,-3.08 3.242,-5.111l12.022,2.838c-1.023,3.373 -2.77,6.336 -5.241,8.887c-2.47,2.551 -5.541,4.54 -9.213,5.966c-3.671,1.426 -7.838,2.139 -12.499,2.139c-6.409,0 -11.937,-1.386 -16.583,-4.157c-4.646,-2.771 -8.221,-6.661 -10.725,-11.67c-2.504,-5.009 -3.756,-10.884 -3.756,-17.626c0,-6.686 1.23,-12.567 3.69,-17.643c2.46,-5.076 5.94,-9.044 10.442,-11.903c4.501,-2.859 9.776,-4.289 15.825,-4.289c3.721,0 7.317,0.608 10.788,1.823c3.47,1.215 6.583,3.126 9.338,5.732c2.755,2.606 4.937,5.983 6.547,10.131c1.61,4.148 2.415,9.157 2.415,15.029l0,4.547l-46.2,0Zm0.042,-9.566l33.433,0c-0.246,-2.706 -0.819,-5.166 -1.718,-7.38c-1.238,-3.047 -3.076,-5.429 -5.514,-7.144c-2.438,-1.715 -5.467,-2.573 -9.089,-2.573c-3.621,0 -6.714,0.874 -9.279,2.621c-2.565,1.747 -4.522,4.049 -5.872,6.905c-1.11,2.349 -1.764,4.873 -1.961,7.572Zm104.03,-14.31c0.857,-2.309 2.033,-4.343 3.529,-6.102c2.107,-2.477 4.637,-4.358 7.589,-5.643c2.952,-1.285 6.136,-1.927 9.55,-1.927c3.836,0 7.311,0.833 10.424,2.499c3.113,1.666 5.585,4.147 7.416,7.444c1.83,3.297 2.746,7.417 2.746,12.36l0,43.915l-12.812,0l0,-42.607c0,-4.363 -1.212,-7.517 -3.635,-9.463c-2.423,-1.946 -5.285,-2.919 -8.584,-2.919c-2.674,0 -4.986,0.568 -6.934,1.704c-1.948,1.136 -3.448,2.7 -4.499,4.692c-1.051,1.992 -1.577,4.29 -1.577,6.894l0,41.699l-12.622,0l0,-43.467c0,-3.472 -1.116,-6.26 -3.349,-8.365c-2.233,-2.105 -5.078,-3.157 -8.536,-3.157c-2.363,0 -4.565,0.552 -6.605,1.656c-2.04,1.104 -3.674,2.732 -4.9,4.883c-1.226,2.152 -1.84,4.816 -1.84,7.992l0,40.458l-12.811,0l0,-65.116l12.206,0l0.257,12.139c0.868,-2.387 1.998,-4.435 3.391,-6.145c1.94,-2.38 4.211,-4.158 6.814,-5.333c2.603,-1.175 5.32,-1.763 8.151,-1.763c4.716,0 8.531,1.467 11.445,4.4c2.338,2.353 4.067,5.444 5.187,9.273Zm87.22,53.839c-3.92,0 -7.13,-0.672 -9.629,-2.016c-2.5,-1.344 -4.457,-2.912 -5.872,-4.703c-1.415,-1.792 -2.505,-3.38 -3.271,-4.766l-1.06,0l0,10.192l-12.482,0l0,-86.782l12.811,0l0,32.27l0.732,0c0.759,-1.354 1.826,-2.922 3.202,-4.707c1.376,-1.784 3.301,-3.349 5.776,-4.694c2.474,-1.345 5.737,-2.018 9.788,-2.018c5.233,0 9.893,1.321 13.98,3.962c4.086,2.641 7.313,6.465 9.679,11.473c2.366,5.007 3.55,11.038 3.55,18.093c0,7.016 -1.165,13.038 -3.495,18.065c-2.33,5.027 -5.539,8.889 -9.629,11.586c-4.09,2.697 -8.783,4.046 -14.079,4.046Zm-2.841,-10.919c3.735,0 6.859,-1.01 9.373,-3.029c2.514,-2.019 4.408,-4.757 5.681,-8.213c1.273,-3.456 1.91,-7.334 1.91,-11.632c0,-4.274 -0.629,-8.107 -1.887,-11.5c-1.258,-3.393 -3.143,-6.077 -5.657,-8.052c-2.514,-1.975 -5.654,-2.962 -9.42,-2.962c-3.664,0 -6.75,0.94 -9.258,2.819c-2.508,1.88 -4.403,4.5 -5.683,7.861c-1.281,3.361 -1.921,7.305 -1.921,11.834c0,4.514 0.648,8.49 1.945,11.927c1.297,3.437 3.207,6.121 5.731,8.051c2.524,1.931 5.586,2.896 9.186,2.896Zm50.544,-19.044c0.136,3.906 0.895,7.254 2.278,10.044c1.533,3.093 3.684,5.43 6.452,7.011c2.768,1.581 5.975,2.372 9.621,2.372c2.388,0 4.559,-0.343 6.512,-1.028c1.954,-0.686 3.635,-1.716 5.044,-3.092c1.409,-1.376 2.49,-3.08 3.242,-5.111l12.022,2.838c-1.023,3.373 -2.77,6.336 -5.241,8.887c-2.47,2.551 -5.541,4.54 -9.213,5.966c-3.671,1.426 -7.838,2.139 -12.499,2.139c-6.409,0 -11.937,-1.386 -16.583,-4.157c-4.646,-2.771 -8.221,-6.661 -10.725,-11.67c-2.504,-5.009 -3.756,-10.884 -3.756,-17.626c0,-6.686 1.23,-12.567 3.69,-17.643c2.46,-5.076 5.94,-9.044 10.442,-11.903c4.501,-2.859 9.776,-4.289 15.825,-4.289c3.721,0 7.317,0.608 10.788,1.823c3.47,1.215 6.583,3.126 9.338,5.732c2.755,2.606 4.937,5.983 6.547,10.131c1.61,4.148 2.415,9.157 2.415,15.029l0,4.547l-46.2,0Zm0.042,-9.566l33.433,0c-0.246,-2.706 -0.819,-5.166 -1.718,-7.38c-1.238,-3.047 -3.076,-5.429 -5.514,-7.144c-2.438,-1.715 -5.467,-2.573 -9.089,-2.573c-3.621,0 -6.714,0.874 -9.279,2.621c-2.565,1.747 -4.522,4.049 -5.872,6.905c-1.11,2.349 -1.764,4.873 -1.961,7.572Zm56.579,38.236l0,-65.116l12.398,0l0,10.458l0.699,0c1.197,-3.538 3.293,-6.318 6.289,-8.338c2.996,-2.021 6.397,-3.031 10.203,-3.031c0.819,0 1.757,0.03 2.814,0.09c1.057,0.06 1.924,0.134 2.601,0.222l0,12.229c-0.464,-0.14 -1.358,-0.29 -2.681,-0.449c-1.323,-0.159 -2.666,-0.238 -4.029,-0.238c-2.959,0 -5.614,0.626 -7.965,1.878c-2.35,1.252 -4.191,2.975 -5.523,5.17c-1.331,2.195 -1.997,4.725 -1.997,7.592l0,39.533l-12.811,0Zm65.933,1.356c-4.724,0 -8.918,-0.684 -12.582,-2.051c-3.664,-1.367 -6.673,-3.379 -9.026,-6.036c-2.353,-2.657 -3.915,-5.898 -4.684,-9.723l12.066,-2.524c0.904,3.39 2.572,5.894 5.004,7.512c2.432,1.617 5.537,2.426 9.315,2.426c4.138,0 7.428,-0.859 9.872,-2.577c2.443,-1.718 3.665,-3.794 3.665,-6.229c0,-2.07 -0.753,-3.784 -2.259,-5.143c-1.506,-1.359 -3.811,-2.382 -6.915,-3.071l-10.959,-2.479c-6.028,-1.363 -10.517,-3.535 -13.467,-6.515c-2.95,-2.98 -4.425,-6.81 -4.425,-11.49c0,-3.874 1.078,-7.265 3.234,-10.171c2.156,-2.906 5.126,-5.169 8.91,-6.787c3.784,-1.618 8.13,-2.428 13.037,-2.428c4.696,0 8.713,0.684 12.052,2.051c3.339,1.367 6.048,3.266 8.128,5.696c2.079,2.43 3.577,5.258 4.492,8.487l-11.496,2.541c-0.823,-2.295 -2.24,-4.312 -4.251,-6.05c-2.011,-1.738 -4.942,-2.607 -8.793,-2.607c-3.547,0 -6.505,0.797 -8.874,2.391c-2.369,1.594 -3.553,3.627 -3.553,6.101c0,2.149 0.792,3.897 2.375,5.245c1.583,1.348 4.155,2.426 7.715,3.235l10.462,2.33c6.035,1.356 10.51,3.495 13.425,6.416c2.915,2.921 4.372,6.646 4.372,11.174c0,3.959 -1.133,7.463 -3.4,10.51c-2.267,3.047 -5.418,5.437 -9.452,7.17c-4.035,1.733 -8.696,2.6 -13.986,2.6Z"/><g><g><path d="M573.608,118.819c-0.655,0 -1.236,-0.097 -1.744,-0.292c-0.508,-0.195 -0.925,-0.481 -1.251,-0.859c-0.326,-0.378 -0.543,-0.839 -0.649,-1.383l1.672,-0.359c0.125,0.482 0.356,0.839 0.694,1.069c0.337,0.23 0.767,0.345 1.291,0.345c0.573,0 1.029,-0.122 1.368,-0.367c0.339,-0.244 0.508,-0.54 0.508,-0.886c0,-0.295 -0.104,-0.538 -0.313,-0.732c-0.209,-0.193 -0.528,-0.339 -0.958,-0.437l-1.519,-0.353c-0.835,-0.194 -1.458,-0.503 -1.866,-0.927c-0.409,-0.424 -0.613,-0.969 -0.613,-1.635c0,-0.551 0.149,-1.034 0.448,-1.447c0.299,-0.413 0.71,-0.735 1.235,-0.966c0.524,-0.23 1.127,-0.345 1.807,-0.345c0.651,0 1.208,0.097 1.67,0.292c0.463,0.195 0.838,0.465 1.126,0.81c0.288,0.346 0.496,0.748 0.622,1.207l-1.593,0.361c-0.114,-0.327 -0.31,-0.613 -0.589,-0.861c-0.279,-0.247 -0.685,-0.371 -1.219,-0.371c-0.492,0 -0.902,0.113 -1.23,0.34c-0.328,0.227 -0.492,0.516 -0.492,0.868c0,0.306 0.11,0.554 0.329,0.746c0.219,0.192 0.576,0.345 1.069,0.46l1.45,0.331c0.836,0.193 1.457,0.497 1.861,0.913c0.404,0.416 0.606,0.945 0.606,1.59c0,0.563 -0.157,1.062 -0.471,1.495c-0.314,0.434 -0.751,0.774 -1.31,1.02c-0.559,0.247 -1.205,0.37 -1.938,0.37Z" style="fill-rule:nonzero;"/><path d="M578.445,118.626l0,-9.264l1.718,0l0,1.488l0.097,0c0.166,-0.503 0.456,-0.899 0.872,-1.186c0.415,-0.287 0.887,-0.431 1.414,-0.431c0.114,0 0.244,0.004 0.39,0.013c0.147,0.009 0.267,0.019 0.361,0.032l0,1.74c-0.064,-0.02 -0.188,-0.041 -0.372,-0.064c-0.183,-0.023 -0.369,-0.034 -0.558,-0.034c-0.41,0 -0.778,0.089 -1.104,0.267c-0.326,0.178 -0.581,0.423 -0.765,0.736c-0.185,0.312 -0.277,0.672 -0.277,1.08l0,5.624l-1.775,0Z" style="fill-rule:nonzero;"/><path d="M586.465,118.83c-0.571,0 -1.088,-0.108 -1.549,-0.325c-0.462,-0.216 -0.827,-0.535 -1.097,-0.955c-0.27,-0.42 -0.404,-0.935 -0.404,-1.544c0,-0.526 0.099,-0.958 0.297,-1.294c0.198,-0.336 0.464,-0.603 0.798,-0.801c0.334,-0.198 0.708,-0.346 1.12,-0.445c0.412,-0.099 0.832,-0.175 1.261,-0.226c0.532,-0.066 0.965,-0.12 1.298,-0.161c0.333,-0.042 0.579,-0.111 0.738,-0.207c0.159,-0.096 0.239,-0.253 0.239,-0.471l0,-0.047c0,-0.346 -0.065,-0.639 -0.195,-0.878c-0.13,-0.24 -0.323,-0.424 -0.579,-0.552c-0.257,-0.128 -0.576,-0.192 -0.958,-0.192c-0.39,0 -0.725,0.062 -1.007,0.186c-0.282,0.124 -0.511,0.282 -0.687,0.474c-0.176,0.192 -0.308,0.393 -0.394,0.603l-1.671,-0.441c0.205,-0.556 0.499,-1.002 0.881,-1.339c0.382,-0.337 0.82,-0.583 1.315,-0.737c0.494,-0.154 1.007,-0.232 1.539,-0.232c0.362,0 0.748,0.044 1.157,0.133c0.409,0.089 0.793,0.249 1.153,0.48c0.36,0.231 0.653,0.557 0.881,0.979c0.227,0.422 0.341,0.968 0.341,1.638l0,6.15l-1.718,0l0,-1.268l-0.091,0c-0.117,0.239 -0.291,0.472 -0.522,0.698c-0.231,0.226 -0.524,0.412 -0.878,0.557c-0.354,0.145 -0.776,0.217 -1.266,0.217Zm0.394,-1.459c0.486,0 0.901,-0.098 1.244,-0.293c0.344,-0.196 0.607,-0.453 0.791,-0.771c0.184,-0.318 0.275,-0.657 0.275,-1.016l0,-1.19c-0.064,0.065 -0.186,0.124 -0.367,0.178c-0.181,0.054 -0.386,0.101 -0.615,0.142c-0.229,0.041 -0.453,0.076 -0.67,0.105c-0.217,0.029 -0.395,0.052 -0.533,0.07c-0.332,0.043 -0.637,0.117 -0.915,0.222c-0.278,0.105 -0.499,0.254 -0.662,0.447c-0.164,0.193 -0.245,0.449 -0.245,0.768c0,0.294 0.073,0.539 0.22,0.737c0.147,0.198 0.348,0.348 0.602,0.449c0.255,0.102 0.546,0.152 0.875,0.152Z" style="fill-rule:nonzero;"/><path d="M594.276,113.137l0,5.489l-1.775,0l0,-9.264l1.693,0l0.018,2.268l-0.183,0c0.262,-0.828 0.643,-1.433 1.143,-1.813c0.5,-0.38 1.104,-0.571 1.814,-0.571c0.614,0 1.151,0.132 1.611,0.397c0.46,0.264 0.818,0.655 1.074,1.173c0.256,0.518 0.384,1.159 0.384,1.924l0,5.886l-1.775,0l0,-5.659c0,-0.667 -0.169,-1.189 -0.508,-1.567c-0.339,-0.378 -0.803,-0.567 -1.393,-0.567c-0.4,0 -0.76,0.09 -1.077,0.27c-0.318,0.18 -0.568,0.441 -0.751,0.784c-0.183,0.343 -0.274,0.759 -0.274,1.25Z" style="fill-rule:nonzero;"/></g><g><path d="M572.235,121.16l0,0.611l-1.728,0l0,-0.611l1.728,0Zm-1.327,-0.711l0.781,0l0,2.827c0,0.095 0.021,0.165 0.062,0.211c0.041,0.045 0.109,0.068 0.203,0.068c0.03,0 0.072,-0.004 0.126,-0.011c0.054,-0.008 0.094,-0.015 0.122,-0.022l0.112,0.602c-0.087,0.026 -0.173,0.045 -0.259,0.055c-0.086,0.01 -0.168,0.016 -0.246,0.016c-0.292,0 -0.515,-0.073 -0.67,-0.218c-0.154,-0.146 -0.231,-0.355 -0.231,-0.628l0,-2.897Z" style="fill-rule:nonzero;"/><path d="M574.006,124.209c-0.297,0 -0.554,-0.063 -0.769,-0.188c-0.215,-0.125 -0.381,-0.303 -0.496,-0.533c-0.115,-0.23 -0.173,-0.503 -0.173,-0.818c0,-0.308 0.057,-0.578 0.172,-0.81c0.115,-0.232 0.277,-0.413 0.487,-0.543c0.21,-0.13 0.457,-0.195 0.74,-0.195c0.19,0 0.368,0.031 0.533,0.093c0.165,0.062 0.31,0.156 0.435,0.282c0.125,0.125 0.222,0.283 0.292,0.473c0.07,0.19 0.105,0.413 0.105,0.669l0,0.225l-2.445,0l0,-0.505l2.064,0l-0.365,0.135c0,-0.156 -0.023,-0.291 -0.069,-0.406c-0.046,-0.115 -0.115,-0.204 -0.206,-0.267c-0.091,-0.063 -0.204,-0.095 -0.339,-0.095c-0.135,0 -0.25,0.032 -0.344,0.096c-0.094,0.064 -0.166,0.151 -0.215,0.261c-0.049,0.11 -0.074,0.235 -0.074,0.375l0,0.355c0,0.173 0.028,0.318 0.085,0.436c0.056,0.118 0.136,0.206 0.238,0.265c0.102,0.059 0.221,0.089 0.356,0.089c0.091,0 0.174,-0.013 0.249,-0.04c0.075,-0.027 0.139,-0.066 0.192,-0.118c0.054,-0.052 0.095,-0.117 0.123,-0.193l0.707,0.134c-0.047,0.165 -0.129,0.309 -0.245,0.433c-0.116,0.123 -0.262,0.219 -0.437,0.287c-0.175,0.068 -0.375,0.102 -0.601,0.102Z" style="fill-rule:nonzero;"/><path d="M577.17,124.209c-0.292,0 -0.545,-0.064 -0.758,-0.193c-0.213,-0.129 -0.377,-0.309 -0.493,-0.54c-0.115,-0.231 -0.173,-0.5 -0.173,-0.807c0,-0.309 0.058,-0.58 0.173,-0.811c0.115,-0.232 0.28,-0.412 0.493,-0.541c0.213,-0.129 0.466,-0.193 0.758,-0.193c0.174,0 0.333,0.023 0.479,0.069c0.146,0.046 0.275,0.112 0.388,0.198c0.113,0.086 0.206,0.19 0.278,0.313c0.073,0.123 0.123,0.261 0.151,0.414l-0.727,0.14c-0.016,-0.078 -0.041,-0.147 -0.073,-0.209c-0.033,-0.062 -0.073,-0.115 -0.12,-0.159c-0.047,-0.044 -0.102,-0.077 -0.163,-0.1c-0.062,-0.023 -0.13,-0.034 -0.205,-0.034c-0.139,0 -0.256,0.038 -0.35,0.115c-0.094,0.077 -0.165,0.184 -0.213,0.32c-0.048,0.137 -0.072,0.295 -0.072,0.476c0,0.178 0.024,0.335 0.072,0.473c0.048,0.137 0.119,0.245 0.213,0.323c0.094,0.078 0.211,0.117 0.35,0.117c0.076,0 0.145,-0.012 0.207,-0.036c0.062,-0.024 0.118,-0.058 0.166,-0.104c0.048,-0.045 0.089,-0.1 0.122,-0.165c0.033,-0.065 0.057,-0.137 0.072,-0.218l0.725,0.138c-0.027,0.158 -0.077,0.299 -0.15,0.424c-0.073,0.125 -0.166,0.231 -0.279,0.319c-0.113,0.088 -0.242,0.156 -0.389,0.202c-0.147,0.047 -0.308,0.07 -0.482,0.07Z" style="fill-rule:nonzero;"/><path d="M579.789,122.419l0,1.731l-0.781,0l0,-3.985l0.767,0l0,1.742l-0.064,0c0.076,-0.249 0.192,-0.442 0.348,-0.579c0.156,-0.137 0.357,-0.205 0.602,-0.205c0.202,0 0.378,0.045 0.528,0.135c0.15,0.09 0.267,0.219 0.35,0.387c0.083,0.168 0.124,0.369 0.124,0.603l0,1.902l-0.783,0l0,-1.762c0,-0.186 -0.047,-0.331 -0.14,-0.437c-0.093,-0.106 -0.222,-0.158 -0.387,-0.158c-0.11,0 -0.208,0.025 -0.293,0.074c-0.085,0.049 -0.152,0.121 -0.201,0.214c-0.048,0.093 -0.072,0.206 -0.072,0.338Z" style="fill-rule:nonzero;"/><path d="M583.595,124.15l0,-2.99l0.726,0l0.038,0.744l-0.056,0c0.044,-0.184 0.11,-0.334 0.198,-0.45c0.088,-0.116 0.192,-0.201 0.31,-0.256c0.118,-0.055 0.242,-0.082 0.372,-0.082c0.209,0 0.378,0.068 0.507,0.205c0.129,0.137 0.224,0.347 0.284,0.632l-0.091,0c0.043,-0.192 0.114,-0.35 0.213,-0.474c0.099,-0.124 0.215,-0.215 0.349,-0.275c0.134,-0.059 0.275,-0.089 0.424,-0.089c0.178,0 0.337,0.04 0.477,0.12c0.14,0.08 0.25,0.195 0.331,0.346c0.081,0.151 0.121,0.335 0.121,0.553l0,2.017l-0.781,0l0,-1.863c0,-0.17 -0.045,-0.296 -0.134,-0.378c-0.089,-0.083 -0.199,-0.124 -0.329,-0.124c-0.098,0 -0.184,0.022 -0.256,0.066c-0.072,0.044 -0.128,0.105 -0.166,0.184c-0.039,0.078 -0.058,0.17 -0.058,0.276l0,1.84l-0.756,0l0,-1.885c0,-0.147 -0.042,-0.263 -0.126,-0.35c-0.084,-0.087 -0.193,-0.13 -0.327,-0.13c-0.091,0 -0.174,0.022 -0.248,0.065c-0.074,0.043 -0.133,0.106 -0.176,0.189c-0.043,0.082 -0.064,0.184 -0.064,0.304l0,1.808l-0.781,0Z" style="fill-rule:nonzero;"/><path d="M589.278,124.208c-0.185,0 -0.351,-0.033 -0.497,-0.1c-0.147,-0.067 -0.262,-0.167 -0.346,-0.299c-0.084,-0.132 -0.126,-0.297 -0.126,-0.494c0,-0.167 0.03,-0.307 0.089,-0.419c0.059,-0.112 0.141,-0.202 0.244,-0.27c0.103,-0.068 0.221,-0.12 0.352,-0.156c0.131,-0.036 0.269,-0.06 0.413,-0.074c0.168,-0.017 0.304,-0.034 0.407,-0.049c0.103,-0.015 0.179,-0.039 0.227,-0.072c0.048,-0.033 0.072,-0.081 0.072,-0.146l0,-0.013c0,-0.085 -0.018,-0.158 -0.053,-0.217c-0.035,-0.059 -0.087,-0.104 -0.155,-0.136c-0.068,-0.031 -0.151,-0.047 -0.25,-0.047c-0.1,0 -0.187,0.016 -0.261,0.047c-0.075,0.031 -0.136,0.073 -0.183,0.125c-0.048,0.052 -0.082,0.11 -0.103,0.175l-0.717,-0.122c0.049,-0.174 0.132,-0.322 0.249,-0.443c0.116,-0.121 0.261,-0.214 0.434,-0.278c0.173,-0.064 0.368,-0.096 0.584,-0.096c0.156,0 0.308,0.019 0.456,0.057c0.148,0.038 0.28,0.098 0.398,0.178c0.117,0.081 0.211,0.186 0.28,0.314c0.069,0.128 0.104,0.283 0.104,0.465l0,2.013l-0.741,0l0,-0.415l-0.026,0c-0.047,0.093 -0.11,0.175 -0.188,0.246c-0.078,0.071 -0.172,0.127 -0.282,0.167c-0.11,0.04 -0.237,0.06 -0.381,0.06Zm0.22,-0.563c0.123,0 0.231,-0.025 0.324,-0.075c0.093,-0.05 0.166,-0.118 0.219,-0.204c0.053,-0.085 0.079,-0.181 0.079,-0.286l0,-0.324c-0.024,0.016 -0.059,0.032 -0.105,0.046c-0.046,0.014 -0.098,0.027 -0.155,0.039c-0.057,0.011 -0.114,0.021 -0.169,0.03c-0.056,0.008 -0.105,0.016 -0.149,0.022c-0.096,0.013 -0.18,0.036 -0.253,0.068c-0.073,0.032 -0.129,0.075 -0.17,0.128c-0.04,0.053 -0.06,0.12 -0.06,0.201c0,0.077 0.019,0.142 0.057,0.195c0.038,0.053 0.09,0.093 0.156,0.12c0.066,0.027 0.142,0.04 0.227,0.04Z" style="fill-rule:nonzero;"/><path d="M591.562,124.15l0,-2.99l0.782,0.473l0,2.518l-0.782,0Z" style="fill-rule:nonzero;"/></g><path d="M605.076,123.18l-0,-2.171c2.018,0 3.425,-0.681 3.44,-2.753l1.357,0c0,2.411 -1.294,4.924 -4.797,4.924Z"/><path d="M605.875,109.271c2.373,0.217 4.318,2.353 4.318,4.793c-0,2.52 -2.01,4.539 -4.461,4.539c-2.534,0 -4.635,-2.183 -4.635,-4.807c-0,-2.71 2.165,-4.764 4.778,-4.525Zm-0.143,1.651c-1.655,-0.151 -3.02,1.157 -3.02,2.874c-0,1.715 1.365,3.15 3.02,3.15c1.56,0 2.847,-1.278 2.847,-2.882c0,-1.604 -1.287,-3 -2.847,-3.142Z"/></g><g><rect x="562.654" y="106.379" width="1.348" height="17.619" style="fill-opacity:0.24;"/><g transform="matrix(21.915085,0,0,21.915085,558.25361,122.537528)"></g><text x="464.43px" y="122.538px" style="font-family:'Inter-Regular', 'Inter';font-size:21.915px;">Connect.</text></g><g><path d="M54.983,94.486c-13.185,5.033 -28.366,-0.488 -35.076,-13.296l-16.679,-31.839c-7.236,-13.812 -1.897,-30.9 11.915,-38.136c6.315,-3.308 13.314,-3.988 19.744,-2.431l0.1,0.024c3.322,0.817 6.489,2.232 9.329,4.189c0.378,0.26 0.608,0.686 0.62,1.145c0.012,0.459 -0.197,0.895 -0.561,1.174c-2.217,1.7 -3.995,3.945 -5.131,6.535c-0.169,0.385 -0.498,0.676 -0.9,0.797c-0.402,0.121 -0.837,0.06 -1.19,-0.168c-2.371,-1.529 -5.104,-2.424 -7.916,-2.597c-2.882,-0.177 -5.846,0.405 -8.587,1.842c-8.012,4.197 -11.108,14.109 -6.911,22.12l16.679,31.839c2.773,5.292 8.039,8.44 13.604,8.757c2.859,0.163 5.797,-0.421 8.516,-1.846c0.402,-0.21 0.791,-0.435 1.168,-0.673c0.468,-0.296 1.065,-0.296 1.533,-0c0.377,0.238 0.766,0.463 1.168,0.673c2.719,1.424 5.657,2.009 8.516,1.846c0.578,-0.033 1.119,0.285 1.372,0.806c0.253,0.521 0.167,1.143 -0.217,1.577c-2.212,2.497 -4.905,4.642 -8.034,6.281c-1.004,0.526 -2.026,0.986 -3.06,1.38Z" style="fill:#5057ff;"/><path d="M74.056,8.785c6.43,-1.557 13.429,-0.877 19.744,2.431c13.812,7.236 19.151,24.324 11.915,38.136l-16.679,31.839c-6.71,12.808 -21.891,18.329 -35.076,13.296c-1.034,-0.395 -2.056,-0.854 -3.06,-1.38c-3.129,-1.639 -5.822,-3.784 -8.034,-6.281l-2.284,-2.579l3.439,0.196c2.859,0.163 5.797,-0.421 8.516,-1.846c0.402,-0.21 0.791,-0.435 1.168,-0.673l0.766,-0.485l0.766,0.485c0.377,0.238 0.766,0.463 1.168,0.673c2.719,1.424 5.657,2.009 8.516,1.846c5.565,-0.318 10.832,-3.465 13.604,-8.757l16.679,-31.839c4.197,-8.012 1.1,-17.923 -6.911,-22.12c-2.742,-1.436 -5.706,-2.019 -8.587,-1.842c-2.812,0.173 -5.545,1.068 -7.916,2.597l-1.414,0.912l-0.676,-1.541c-1.136,-2.59 -2.914,-4.835 -5.131,-6.535l-1.565,-1.2l1.624,-1.119c2.84,-1.958 6.007,-3.372 9.329,-4.189l0.098,-0.024l0.002,-0.001Z" style="fill:#5057ff;"/><path d="M33.495,9.207c5.213,-5.659 12.684,-9.207 20.977,-9.207c8.293,0 15.764,3.547 20.977,9.207c2.326,2.526 4.203,5.473 5.502,8.712l0.739,1.843l-1.982,0.122c-2.812,0.173 -5.545,1.068 -7.916,2.597l-1.414,0.912l-0.676,-1.541c-1.136,-2.59 -2.914,-4.835 -5.131,-6.535c-2.799,-2.146 -6.3,-3.422 -10.097,-3.422c-3.796,0 -7.297,1.276 -10.097,3.422c-2.217,1.7 -3.995,3.945 -5.131,6.535l-0.676,1.541l-1.414,-0.912c-2.371,-1.529 -5.104,-2.424 -7.916,-2.597l-1.982,-0.122l0.739,-1.843c1.299,-3.239 3.175,-6.186 5.502,-8.712Z" style="fill:#5057ff;"/></g></g></svg>