<?xml version="1.0" encoding="UTF-8" standalone="no"?><!DOCTYPE svg PUBLIC "-//W3C//DTD SVG 1.1//EN" "http://www.w3.org/Graphics/SVG/1.1/DTD/svg11.dtd"><svg width="100%" height="100%" viewBox="0 0 798 74" version="1.1" xmlns="http://www.w3.org/2000/svg" xmlns:xlink="http://www.w3.org/1999/xlink" xml:space="preserve" xmlns:serif="http://www.serif.com/" style="fill-rule:evenodd;clip-rule:evenodd;stroke-linejoin:round;stroke-miterlimit:2;"><path d="M64.334,59.758l20.01,-50.621c2.627,-6.616 7.459,-9.137 14.916,-9.137c7.352,0 12.182,2.521 14.701,9.137l23.927,63.014l-13.758,0l-21.513,-57.027c-0.63,-1.68 -1.785,-2.416 -3.465,-2.416c-1.68,0 -2.836,0.735 -3.571,2.416c0,0 -13.675,34.673 -19.698,49.946c-1.685,4.273 -5.811,7.081 -10.404,7.081c-13.292,-0 -39.333,-0 -39.333,-0c-18.799,0 -26.148,-10.292 -26.144,-24.47l0.013,-46.42l0.001,-0c2.863,-0 6.019,1.38 8.476,3.708c2.457,2.327 3.914,5.316 3.913,8.027l-0.01,34.58c-0.002,6.826 3.357,12.183 14.49,12.183l37.452,0Zm209.456,0l0.013,-44.32c0.003,-9.242 5.255,-15.438 16.283,-15.438c9.872,0 14.282,5.041 17.22,13.128l20.677,45.265c0.84,1.68 2.205,2.941 4.515,2.941c2.626,0 4.201,-1.575 4.202,-3.991l0.016,-56.082l12.498,0l-0.016,56.607c-0.003,9.347 -5.361,15.543 -16.283,15.543c-9.872,0 -14.387,-5.041 -17.325,-13.128l-20.677,-45.265c-0.945,-2.1 -2.205,-3.046 -4.41,-3.046c-2.836,0 -4.306,1.575 -4.307,4.096c0,0 -0.008,27.783 -0.013,44.239c-0.002,6.541 -5.305,11.843 -11.846,11.843c-18.567,0 -52.431,0 -52.431,0c-16.804,0 -23.628,-8.297 -23.625,-19.324c0.002,-8.087 3.68,-13.548 10.192,-16.278c-6.616,-2.731 -9.975,-8.192 -9.973,-15.963c0.003,-11.342 7.042,-19.324 23.741,-19.324l35.498,0c-0.002,7.408 -5.266,12.392 -13.089,12.392l-22.412,-0c-7.457,0 -10.713,3.466 -10.715,8.927c-0.002,5.776 3.673,8.402 10.815,8.402l34.867,0c-0.002,6.718 -4.776,11.237 -11.87,11.237l-23.316,0c-7.142,0 -10.818,2.836 -10.82,8.612c-0.002,5.566 3.463,8.927 10.71,8.927l51.881,0Zm340.815,-58.498c15.963,0 22.787,9.872 22.784,21.215c-0.002,8.822 -4.206,18.274 -15.024,21.32l16.481,28.356l-13.758,0l-16.166,-27.411l-18.484,0c-1.155,0 -1.786,0.525 -1.786,1.785l-0.007,25.625l-12.393,0l0.008,-28.041c0.002,-7.982 3.364,-11.237 11.136,-11.237l27.621,0c7.037,0 9.873,-4.831 9.875,-9.872c0.001,-5.041 -3.043,-9.347 -9.869,-9.347l-55.767,0l-0.013,44.214c-0.003,9.347 -5.256,15.543 -15.758,15.543c-9.452,0 -13.967,-5.041 -16.695,-13.128l-17.211,-45.265c-0.63,-1.785 -2.1,-3.046 -3.99,-3.046c-2.1,0 -3.571,1.575 -3.572,4.096l-0.012,41.799c-0.003,9.347 -5.256,15.543 -15.758,15.543c-9.452,0 -13.967,-5.041 -16.695,-13.128l-21.933,-59.023l0.001,0c7.375,-0 15.404,5.853 18.139,13.225l16.291,43.907c0.735,1.785 1.995,2.941 3.885,2.941c2.1,0 3.676,-1.575 3.677,-3.991l0.012,-41.904c0.003,-9.242 5.255,-15.438 15.653,-15.438c9.452,0 14.072,5.041 16.8,13.128l17.211,45.265c0.63,1.785 2.1,2.941 3.885,2.941c2.1,0 3.571,-1.575 3.572,-3.991c-0,0 0.008,-27.549 0.012,-44.03c0.002,-6.657 5.399,-12.052 12.056,-12.052c19.496,-0 55.792,-0 55.792,-0Zm-479.008,0l53.877,0c-0.002,7.408 -5.266,12.392 -13.089,12.392l-7.604,-0l-0.017,58.498l-12.498,0l0.017,-58.498l-20.689,0l0.004,-12.393Zm225.063,0l53.877,0c-0.002,7.408 -5.266,12.392 -13.089,12.392l-7.604,-0l-0.017,58.498l-12.498,0l0.017,-58.498l-20.689,0l0.004,-12.393Zm290.702,0l12.393,0l-0.02,70.89l-12.393,0l0.02,-70.89Zm23.945,0l53.877,0c-0.002,7.408 -5.266,12.392 -13.089,12.392l-7.604,-0l-0.017,58.498l-12.498,0l0.017,-58.498l-20.689,0l0.004,-12.393Zm86.644,0l35.498,0c-0.002,7.408 -5.266,12.392 -13.089,12.392l-22.412,-0c-7.457,0 -10.713,3.466 -10.715,8.927c-0.002,5.776 3.673,8.402 10.815,8.402l34.867,0c-0.002,6.718 -4.776,11.237 -11.87,11.237l-23.316,0c-7.142,0 -10.818,2.836 -10.82,8.612c-0.002,5.566 3.463,8.927 10.71,8.927l35.918,0l-0.004,12.393l-35.918,0c-16.804,0 -23.628,-8.297 -23.625,-19.324c0.002,-8.087 3.68,-13.548 10.192,-16.278c-6.616,-2.731 -9.975,-8.192 -9.973,-15.963c0.003,-11.342 7.042,-19.324 23.741,-19.324Z"/></svg>