<?xml version="1.0" encoding="UTF-8" standalone="no"?><!DOCTYPE svg PUBLIC "-//W3C//DTD SVG 1.1//EN" "http://www.w3.org/Graphics/SVG/1.1/DTD/svg11.dtd"><svg width="100%" height="100%" viewBox="0 0 682 67" version="1.1" xmlns="http://www.w3.org/2000/svg" xmlns:xlink="http://www.w3.org/1999/xlink" xml:space="preserve" xmlns:serif="http://www.serif.com/" style="fill-rule:evenodd;clip-rule:evenodd;stroke-linejoin:round;stroke-miterlimit:2;"><path d="M40.009,44.007c0.337,-0 0.616,0.262 0.637,0.598c0.198,3.156 1.118,17.855 1.328,21.199c0.011,0.176 -0.051,0.348 -0.172,0.477c-0.121,0.128 -0.289,0.201 -0.465,0.201c-2.06,-0 -8.096,-0 -8.096,-0c-8.816,0 -17.271,-3.502 -23.505,-9.736c-6.234,-6.234 -9.736,-14.689 -9.736,-23.505c0,-8.816 3.502,-17.271 9.736,-23.505c6.234,-6.234 14.689,-9.736 23.505,-9.736c0,0 40.401,-0 45.989,0c0.352,0 0.638,0.286 0.638,0.638c-0,3.002 -0,15.682 -0,18.245c-0,0.271 -0.172,0.513 -0.428,0.602c-2.689,0.939 -17.26,6.029 -20.948,7.318c-0.195,0.068 -0.411,0.038 -0.58,-0.082c-0.169,-0.12 -0.269,-0.314 -0.269,-0.52c0,-0.908 0,-2.287 0,-3.088c-0,-0.169 -0.067,-0.332 -0.187,-0.451c-0.12,-0.12 -0.282,-0.187 -0.451,-0.187c-3.869,-0 -24.015,-0 -24.015,-0c-5.946,0 -10.766,4.82 -10.766,10.766c0,5.946 4.82,10.766 10.766,10.766l7.019,0Zm17.635,-3.726c-0,-0.207 0.1,-0.401 0.269,-0.52c0.169,-0.12 0.385,-0.15 0.58,-0.082c3.688,1.288 18.26,6.379 20.948,7.318c0.256,0.089 0.428,0.331 0.428,0.602c-0,2.564 -0,15.243 -0,18.245c0,0.169 -0.067,0.332 -0.187,0.451c-0.12,0.12 -0.282,0.187 -0.451,0.187c-2.534,-0 -11.837,-0 -13.674,-0c-0.199,-0 -0.387,-0.093 -0.508,-0.252c-1.619,-2.127 -13.03,-17.116 -16.138,-21.199c-0.147,-0.193 -0.172,-0.453 -0.064,-0.67c0.108,-0.217 0.329,-0.355 0.572,-0.355c2.065,-0 6.04,-0 7.588,-0c0.352,-0 0.638,-0.286 0.638,-0.638l0,-3.088Z" style="fill:#ff343b;"/><g><path d="M189.186,0.598c0,-0.177 -0.055,-0.321 -0.166,-0.432c-0.111,-0.111 -0.255,-0.166 -0.432,-0.166l-24.465,0c-0.399,0 -0.82,0.022 -1.263,0.066c-2.526,0.266 -4.731,1.208 -6.615,2.825c-1.884,1.618 -3.269,3.645 -4.155,6.083l-12.299,35.368l-12.366,-35.368c-0.842,-2.438 -2.205,-4.454 -4.089,-6.05c-1.884,-1.596 -4.089,-2.548 -6.615,-2.859c-0.443,-0.044 -0.886,-0.066 -1.33,-0.066l-24.465,0c-0.133,0 -0.255,0.055 -0.366,0.166c-0.111,0.111 -0.166,0.255 -0.166,0.432l0,65.285c0,0.177 0.055,0.321 0.166,0.432c0.111,0.111 0.233,0.166 0.366,0.166l12.166,0c0.177,0 0.321,-0.055 0.432,-0.166c0.111,-0.111 0.166,-0.255 0.166,-0.432l0,-54.515l7.313,0c2.393,0 4.188,1.285 5.385,3.856l17.884,50.859c0.133,0.266 0.31,0.399 0.532,0.399l9.906,0c0.266,0 0.443,-0.133 0.532,-0.399l17.95,-50.859c1.152,-2.571 2.947,-3.856 5.385,-3.856l7.313,0l0,54.515c0,0.177 0.055,0.321 0.166,0.432c0.111,0.111 0.233,0.166 0.366,0.166l12.166,0c0.177,0 0.321,-0.055 0.432,-0.166c0.111,-0.111 0.166,-0.255 0.166,-0.432l0,-65.285Z" style="fill:#202020;fill-rule:nonzero;"/><path d="M215.62,0.598c0,-0.177 -0.055,-0.321 -0.166,-0.432c-0.111,-0.111 -0.255,-0.166 -0.432,-0.166l-12.166,0c-0.133,0 -0.255,0.055 -0.366,0.166c-0.111,0.111 -0.166,0.255 -0.166,0.432l0,65.352c0,0.133 0.055,0.255 0.166,0.366c0.111,0.111 0.233,0.166 0.366,0.166l12.166,0c0.177,0 0.321,-0.055 0.432,-0.166c0.111,-0.111 0.166,-0.233 0.166,-0.366l0,-65.352Z" style="fill:#202020;fill-rule:nonzero;"/><path d="M242.053,17.086c0,-1.596 0.554,-2.947 1.662,-4.055c1.108,-1.108 2.438,-1.662 3.989,-1.662l71.668,0c0.133,0 0.255,-0.055 0.366,-0.166c0.111,-0.111 0.166,-0.233 0.166,-0.366l0,-10.305c0,-0.133 -0.055,-0.255 -0.166,-0.366c-0.111,-0.111 -0.233,-0.166 -0.366,-0.166l-71.668,0c-5.23,0 -9.695,1.85 -13.396,5.551c-3.701,3.701 -5.551,8.166 -5.551,13.396l0,0.997c0,5.23 1.85,9.695 5.551,13.396c3.701,3.701 8.166,5.551 13.396,5.551l57.042,0c1.551,0 2.881,0.565 3.989,1.695c1.108,1.13 1.662,2.471 1.662,4.022l0,4.787c0,1.551 -0.554,2.881 -1.662,3.989c-1.108,1.108 -2.438,1.662 -3.989,1.662l-71.668,0c-0.133,0 -0.255,0.055 -0.366,0.166c-0.111,0.111 -0.166,0.255 -0.166,0.432l0,10.238c0,0.177 0.055,0.321 0.166,0.432c0.111,0.111 0.233,0.166 0.366,0.166l71.668,0c5.23,0 9.695,-1.861 13.396,-5.584c3.701,-3.723 5.551,-8.199 5.551,-13.429l0,-0.931c0,-5.274 -1.85,-9.762 -5.551,-13.463c-3.701,-3.701 -8.166,-5.551 -13.396,-5.551l-57.042,0c-1.551,0 -2.881,-0.554 -3.989,-1.662c-1.108,-1.108 -1.662,-2.46 -1.662,-4.055l0,-4.72Z" style="fill:#202020;fill-rule:nonzero;"/><path d="M350.126,17.086c0,-1.596 0.554,-2.947 1.662,-4.055c1.108,-1.108 2.438,-1.662 3.989,-1.662l71.668,0c0.133,0 0.255,-0.055 0.366,-0.166c0.111,-0.111 0.166,-0.233 0.166,-0.366l0,-10.305c0,-0.133 -0.055,-0.255 -0.166,-0.366c-0.111,-0.111 -0.233,-0.166 -0.366,-0.166l-71.668,0c-5.23,0 -9.695,1.85 -13.396,5.551c-3.701,3.701 -5.551,8.166 -5.551,13.396l0,0.997c0,5.23 1.85,9.695 5.551,13.396c3.701,3.701 8.166,5.551 13.396,5.551l57.042,0c1.551,0 2.881,0.565 3.989,1.695c1.108,1.13 1.662,2.471 1.662,4.022l0,4.787c0,1.551 -0.554,2.881 -1.662,3.989c-1.108,1.108 -2.438,1.662 -3.989,1.662l-71.668,0c-0.133,0 -0.255,0.055 -0.366,0.166c-0.111,0.111 -0.166,0.255 -0.166,0.432l0,10.238c0,0.177 0.055,0.321 0.166,0.432c0.111,0.111 0.233,0.166 0.366,0.166l71.668,0c5.23,0 9.695,-1.861 13.396,-5.584c3.701,-3.723 5.551,-8.199 5.551,-13.429l0,-0.931c0,-5.274 -1.85,-9.762 -5.551,-13.463c-3.701,-3.701 -8.166,-5.551 -13.396,-5.551l-57.042,0c-1.551,0 -2.881,-0.554 -3.989,-1.662c-1.108,-1.108 -1.662,-2.46 -1.662,-4.055l0,-4.72Z" style="fill:#202020;fill-rule:nonzero;"/><path d="M458.199,0.598c0,-0.177 -0.055,-0.321 -0.166,-0.432c-0.111,-0.111 -0.255,-0.166 -0.432,-0.166l-12.166,0c-0.133,0 -0.255,0.055 -0.366,0.166c-0.111,0.111 -0.166,0.255 -0.166,0.432l0,65.352c0,0.133 0.055,0.255 0.166,0.366c0.111,0.111 0.233,0.166 0.366,0.166l12.166,0c0.177,0 0.321,-0.055 0.432,-0.166c0.111,-0.111 0.166,-0.233 0.166,-0.366l0,-65.352Z" style="fill:#202020;fill-rule:nonzero;"/><path d="M547.325,0c5.274,0 9.762,1.85 13.463,5.551c3.701,3.701 5.551,8.188 5.551,13.463l0,28.454c0,5.274 -1.85,9.762 -5.551,13.463c-3.701,3.701 -8.188,5.551 -13.463,5.551l-56.975,0c-5.23,0 -9.706,-1.85 -13.429,-5.551c-3.723,-3.701 -5.584,-8.188 -5.584,-13.463l0,-28.454c0,-5.274 1.861,-9.762 5.584,-13.463c3.723,-3.701 8.199,-5.551 13.429,-5.551l56.975,0Zm5.717,17.086c0,-1.551 -0.554,-2.892 -1.662,-4.022c-1.108,-1.13 -2.46,-1.695 -4.055,-1.695l-56.975,0c-1.551,0 -2.892,0.565 -4.022,1.695c-1.13,1.13 -1.695,2.471 -1.695,4.022l0,32.31c0,1.551 0.565,2.892 1.695,4.022c1.13,1.13 2.471,1.695 4.022,1.695l56.975,0c1.596,0 2.947,-0.565 4.055,-1.695c1.108,-1.13 1.662,-2.471 1.662,-4.022l0,-32.31Z" style="fill:#202020;fill-rule:nonzero;"/><path d="M661.115,0.598c0,-0.177 0.055,-0.321 0.166,-0.432c0.111,-0.111 0.255,-0.166 0.432,-0.166l19.376,0c0.133,0 0.255,0.055 0.366,0.166c0.111,0.111 0.166,0.255 0.166,0.432l0,65.352c0,0.133 -0.055,0.255 -0.166,0.366c-0.111,0.111 -0.233,0.166 -0.366,0.166l-32.074,0c-5.097,-0.133 -9.108,-2.283 -12.033,-6.449l-30.914,-46.072c-1.285,-1.684 -2.881,-2.526 -4.787,-2.526l-8.51,0l0,54.515c0,0.133 -0.055,0.255 -0.166,0.366c-0.111,0.111 -0.255,0.166 -0.432,0.166l-12.166,0c-0.133,0 -0.255,-0.055 -0.366,-0.166c-0.111,-0.111 -0.166,-0.233 -0.166,-0.366l0,-65.352c0,-0.177 0.055,-0.321 0.166,-0.432c0.111,-0.111 0.233,-0.166 0.366,-0.166l24.864,0c5.097,0.177 9.108,2.349 12.033,6.515l30.914,46.006c1.241,1.729 2.837,2.593 4.787,2.593l8.51,0l0,-54.515Z" style="fill:#202020;fill-rule:nonzero;"/></g></svg>