<?xml version="1.0" encoding="UTF-8" standalone="no"?><!DOCTYPE svg PUBLIC "-//W3C//DTD SVG 1.1//EN" "http://www.w3.org/Graphics/SVG/1.1/DTD/svg11.dtd"><svg width="100%" height="100%" viewBox="0 0 881 222" version="1.1" xmlns="http://www.w3.org/2000/svg" xmlns:xlink="http://www.w3.org/1999/xlink" xml:space="preserve" xmlns:serif="http://www.serif.com/" style="fill-rule:evenodd;clip-rule:evenodd;stroke-linejoin:round;stroke-miterlimit:2;"><g><g><path d="M38.864,32.657c3.548,-8.63 9.716,-17.724 17.307,-23.951c7.94,-6.513 17.324,-9.91 26.821,-8.316c9.559,1.605 14.132,7.202 15.927,15.092c0.124,0.545 0.228,1.109 0.313,1.691c2.487,-1.242 4.992,-2.225 7.445,-2.927c7.93,-2.27 15.444,-1.659 21.141,1.392c5.978,3.201 9.517,9.051 10.544,16.561c1.09,7.969 -1.059,18.237 -3.506,25.904c13.64,11.364 19.716,28.537 16.319,46.583c-2.079,11.047 -7.031,20.008 -13.981,26.595c9.833,8.755 15.757,21.883 15.757,37.257c0,33.063 -25.111,52.793 -65.552,52.793l-57.189,0c-16.742,0 -27.503,-14.585 -28.821,-27.888c-4.082,-41.221 1.116,-110.394 11.969,-138.89c4.982,-13.079 13.465,-21.271 25.507,-21.896Zm83.959,29.122c3.694,-7.821 11.051,-31.603 0.294,-37.363c-9.218,-4.936 -25.889,1.894 -35.327,15.47c1.7,-13.275 5.375,-27.691 -6.446,-29.676c-16.781,-2.817 -32.437,18.396 -35.401,33.026l-1.196,-0.225c-10.972,-2.065 -18.028,4.44 -22.083,15.087c-10.498,27.564 -15.314,94.492 -11.366,134.365c0.879,8.871 7.747,18.911 18.911,18.911l57.189,0c33.721,0 55.594,-15.266 55.594,-42.835c0,-17.812 -9.771,-32 -24.857,-36.927c11.865,-4.456 20.556,-14.439 23.253,-28.767c3.134,-16.651 -3.832,-32.375 -18.565,-41.065Z"/><path d="M63.044,67.561c6.121,1.584 6.813,10.751 4.823,18.44c-1.99,7.689 -7.433,9.772 -12.03,8.582c-4.598,-1.19 -7.873,-5.53 -5.883,-13.219c1.99,-7.689 6.97,-15.388 13.09,-13.804Z"/><path d="M91.296,75.327c6.121,1.584 6.813,10.751 4.823,18.44c-1.834,7.087 -1.291,2.109 -8.944,0.949c-7.024,-1.064 -10.96,2.104 -8.969,-5.585c1.99,-7.689 6.97,-15.388 13.09,-13.804Z"/><g><path d="M210.401,215.436c-9.466,0 -17.669,-2.221 -24.607,-6.662c-6.938,-4.441 -12.295,-10.584 -16.072,-18.429c-3.776,-7.845 -5.665,-16.883 -5.665,-27.114c0,-10.231 1.863,-19.304 5.589,-27.22c3.726,-7.915 8.932,-14.129 15.619,-18.641c6.687,-4.512 14.421,-6.768 23.203,-6.768c5.559,0 10.916,1.012 16.072,3.036c5.156,2.024 9.778,5.106 13.867,9.245c4.089,4.139 7.321,9.371 9.698,15.695c2.376,6.324 3.564,13.797 3.564,22.416l0,5.318l-79.515,0l0,-10.574l72.899,0l-5.679,3.988c0,-7.251 -1.234,-13.751 -3.701,-19.501c-2.467,-5.75 -6.002,-10.282 -10.604,-13.595c-4.602,-3.313 -10.136,-4.97 -16.601,-4.97c-6.385,0 -11.984,1.687 -16.798,5.061c-4.813,3.374 -8.555,7.845 -11.224,13.414c-2.669,5.569 -4.003,11.676 -4.003,18.323l0,6.285c0,7.955 1.385,14.908 4.154,20.86c2.769,5.952 6.707,10.569 11.813,13.852c5.106,3.283 11.123,4.925 18.052,4.925c4.753,0 8.921,-0.75 12.507,-2.251c3.585,-1.501 6.596,-3.51 9.034,-6.027c2.437,-2.517 4.28,-5.256 5.528,-8.217l11.662,3.686c-1.551,4.23 -4.074,8.157 -7.568,11.782c-3.494,3.625 -7.865,6.546 -13.111,8.761c-5.247,2.215 -11.284,3.323 -18.112,3.323Z" style="fill-rule:nonzero;"/><path d="M294.188,215.557c-6.123,0 -11.713,-1.188 -16.768,-3.564c-5.055,-2.376 -9.083,-5.851 -12.084,-10.423c-3.001,-4.572 -4.501,-10.121 -4.501,-16.647c0,-5.015 0.946,-9.234 2.839,-12.658c1.893,-3.424 4.582,-6.238 8.066,-8.444c3.485,-2.205 7.608,-3.947 12.371,-5.226c4.763,-1.279 10.014,-2.271 15.755,-2.976c5.599,-0.705 10.358,-1.315 14.275,-1.828c3.918,-0.514 6.919,-1.349 9.003,-2.507c2.085,-1.158 3.127,-2.996 3.127,-5.514l0,-2.356c0,-4.571 -0.916,-8.478 -2.749,-11.721c-1.833,-3.243 -4.512,-5.746 -8.037,-7.508c-3.525,-1.762 -7.825,-2.643 -12.9,-2.643c-4.813,0 -9.032,0.74 -12.657,2.221c-3.625,1.48 -6.631,3.419 -9.018,5.815c-2.387,2.397 -4.184,5.015 -5.393,7.855l-11.782,-3.988c2.275,-5.518 5.432,-9.944 9.47,-13.277c4.038,-3.333 8.59,-5.76 13.656,-7.281c5.066,-1.521 10.206,-2.281 15.422,-2.281c3.968,0 8.067,0.524 12.296,1.571c4.23,1.047 8.157,2.83 11.782,5.347c3.625,2.517 6.561,5.966 8.806,10.347c2.246,4.381 3.368,9.924 3.368,16.631l0,68.761l-12.084,0l0,-16.012l-0.906,0c-1.45,3.082 -3.585,6.022 -6.405,8.822c-2.82,2.8 -6.304,5.081 -10.453,6.843c-4.149,1.762 -8.982,2.643 -14.501,2.643Zm1.872,-10.996c6.163,0 11.5,-1.364 16.012,-4.093c4.512,-2.729 8.006,-6.389 10.484,-10.981c2.477,-4.592 3.716,-9.617 3.716,-15.076l0,-14.44c-0.867,0.826 -2.332,1.571 -4.396,2.236c-2.064,0.665 -4.411,1.249 -7.039,1.752c-2.628,0.503 -5.267,0.931 -7.916,1.284c-2.649,0.353 -4.98,0.65 -6.994,0.891c-5.639,0.665 -10.463,1.752 -14.471,3.263c-4.008,1.511 -7.059,3.56 -9.154,6.148c-2.094,2.588 -3.142,5.896 -3.142,9.924c0,4.028 0.997,7.463 2.991,10.302c1.994,2.84 4.718,5.015 8.172,6.526c3.454,1.511 7.366,2.266 11.736,2.266Z" style="fill-rule:nonzero;"/><path d="M397.913,215.194c-8.782,0 -16.536,-2.205 -23.263,-6.616c-6.727,-4.411 -11.993,-10.544 -15.8,-18.398c-3.807,-7.855 -5.71,-16.908 -5.71,-27.159c0,-10.373 1.903,-19.497 5.71,-27.372c3.807,-7.875 9.073,-14.018 15.8,-18.429c6.727,-4.411 14.481,-6.616 23.263,-6.616c5.136,0 9.849,0.755 14.139,2.266c4.29,1.511 8.097,3.51 11.42,5.997c3.323,2.488 6.097,5.257 8.323,8.308c2.225,3.051 3.842,6.118 4.849,9.199l-11.662,3.655c-0.564,-1.873 -1.57,-3.872 -3.021,-5.997c-1.45,-2.125 -3.308,-4.119 -5.574,-5.982c-2.266,-1.863 -4.939,-3.384 -8.021,-4.562c-3.082,-1.178 -6.566,-1.767 -10.453,-1.767c-6.888,0 -12.734,1.868 -17.537,5.604c-4.804,3.736 -8.469,8.716 -10.997,14.94c-2.528,6.223 -3.792,13.142 -3.792,20.755c0,7.532 1.264,14.405 3.792,20.618c2.528,6.214 6.193,11.173 10.997,14.879c4.804,3.706 10.649,5.559 17.537,5.559c3.927,0 7.467,-0.599 10.619,-1.798c3.152,-1.199 5.886,-2.754 8.202,-4.668c2.316,-1.913 4.205,-3.973 5.665,-6.178c1.46,-2.205 2.472,-4.275 3.035,-6.208l11.601,3.625c-0.967,3.162 -2.578,6.288 -4.833,9.38c-2.255,3.091 -5.065,5.921 -8.429,8.489c-3.364,2.568 -7.221,4.622 -11.571,6.163c-4.35,1.541 -9.113,2.311 -14.289,2.311Z" style="fill-rule:nonzero;"/><g><g><g><path d="M484.842,215.436l-0.027,0c-1.715,0 -11.862,0 -20.784,-5.254c-1.344,-0.792 -8.676,-5.109 -13.496,-14.073c-4.757,-8.848 -4.757,-18.854 -4.757,-20.541c-0,-1.756 -0,-11.832 4.757,-21.423c4.82,-9.717 12.143,-15.145 13.496,-16.147c1.442,-1.069 8.922,-6.613 20.784,-8.436l0.027,-0.004c24.19,-3.717 48.381,-7.434 72.571,-11.152l0.032,-0.005c2.046,-0.314 14.497,-2.228 25.755,2.445c1.777,0.738 11.581,4.807 18.244,15.666c6.746,10.994 6.746,24.403 6.746,26.598c-0,2.26 -0,15.422 -6.746,27.438c-6.663,11.868 -16.44,17.441 -18.244,18.47c-11.258,6.418 -23.632,6.418 -25.755,6.418l-0.032,-0c-24.19,0 -48.381,0 -72.571,0Zm0,-76.77l-0.027,0.004c-1.357,0.186 -9.346,1.284 -15.771,6.676c-0.989,0.83 -6.3,5.286 -9.571,12.989c-3.244,7.639 -3.244,15.092 -3.244,16.432c-0,1.295 -0,8.723 3.231,15.864c3.257,7.2 8.568,10.811 9.557,11.483c6.425,4.368 14.491,4.237 15.798,4.215l0.027,-0c24.19,-0.394 48.381,-0.788 72.571,-1.183l0.032,-0.001c1.612,-0.026 11.35,-0.185 19.33,-5.676c1.279,-0.88 8.141,-5.601 12.461,-14.874c4.353,-9.344 4.353,-18.699 4.353,-20.365c-0,-1.621 -0,-11.11 -4.371,-19.784c-4.338,-8.608 -11.21,-12.317 -12.478,-13.002c-7.98,-4.307 -17.751,-2.965 -19.296,-2.753l-0.032,0.004c-24.19,3.323 -48.381,6.646 -72.571,9.969Z"/></g></g></g><path d="M636.501,150.12l0,63.141l-12.267,0l0,-101.328l11.843,0l0.061,23.625l-1.874,0c2.779,-8.822 7.145,-15.186 13.096,-19.094c5.952,-3.908 12.764,-5.861 20.438,-5.861c6.868,0 12.895,1.425 18.081,4.275c5.186,2.85 9.239,7.025 12.16,12.523c2.921,5.498 4.381,12.266 4.381,20.302l0,65.557l-12.265,0l0,-64.651c0,-8.258 -2.326,-14.794 -6.979,-19.607c-4.652,-4.813 -10.866,-7.22 -18.641,-7.22c-5.317,0 -10.095,1.143 -14.335,3.428c-4.239,2.286 -7.583,5.548 -10.03,9.788c-2.447,4.24 -3.671,9.28 -3.671,15.12Z" style="fill-rule:nonzero;"/></g></g><g transform="matrix(0.450621,0,0,0.450621,-1803.330225,-894.481754)"><text x="5632.155px" y="2383.686px" style="font-family:'Inter-Regular', 'Inter';font-size:62.5px;">See sp<tspan x="5834.578px " y="2383.686px ">a</tspan>ce.</text><g transform="matrix(62.5,0,0,62.5,5880.934328,2450.353042)"></g><text x="5632.155px" y="2450.353px" style="font-family:'Inter-Regular', 'Inter';font-size:62.5px;">Sit e<tspan x="5762.465px " y="2450.353px ">a</tspan>sy<tspan x="5862.929px " y="2450.353px ">.</tspan></text></g></g></svg>